<?xml version="1.0" encoding="UTF-8"?>
<svg width="66px" height="66px" viewBox="0 0 66 66" version="1.1" xmlns="http://www.w3.org/2000/svg" xmlns:xlink="http://www.w3.org/1999/xlink">
    <!-- Generator: Sketch 64 (93537) - https://sketch.com -->
    <title>Det_Kongelige_Akademi_Header_Logo</title>
    <desc>Created with Sketch.</desc>
    <g id="Det_Kongelige_Akademi_Header_Logo" stroke="none" stroke-width="1" fill="none" fill-rule="evenodd">
        <g id="Group" transform="translate(5.276262, 3.685635)" fill="#000000">
            <path d="M35.5449484,49.2468073 C35.1792236,49.2923478 34.6614637,49.3890336 34.141602,49.4464847 C32.9274237,49.5746985 32.5301709,52.1095498 30.6749232,52.2447699 C30.3659488,52.2678904 30.2489449,52.2573811 30.0527706,52.2328593 L30.0240451,52.3708819 C30.0240451,52.3708819 30.8080414,53.2648759 32.2779469,53.1765975 C34.4239528,53.0392755 35.0019661,50.3159569 36.2070364,49.8002989 C36.5209151,49.83533 36.9391866,49.9796582 37.3077139,50.2437928 L37.5900647,49.8542468 C36.8565132,49.3834287 36.1215605,49.1655352 35.5449484,49.2468073" id="Fill-4"></path>
            <path d="M22.1530447,55.7172639 C21.7270664,55.7172639 21.6492973,55.3494372 20.9129433,55.3494372 L20.234741,55.3494372 C19.8283801,55.3494372 19.7120768,55.2135165 19.7120768,55.0201448 C19.7120768,54.749004 20.3321275,54.5353142 21.0103298,54.5353142 C21.8041348,54.5353142 22.6182578,54.7686214 22.6182578,55.2716682 C22.6182578,55.5820438 22.3856513,55.7172639 22.1530447,55.7172639 M24.923305,53.3127284 C23.9739619,54.0294649 23.393146,54.1843024 22.8508644,54.2039199 C21.7074489,54.0483817 21.4363081,54.0294649 21.0677808,54.0294649 C19.8669143,54.0294649 19.0527913,54.5528297 19.0527913,55.0173423 C19.0527913,55.4433206 19.498387,55.715162 19.9636002,55.715162 L20.9129433,55.715162 C21.4748423,55.715162 21.6296799,56.1215229 22.1915789,56.1215229 C22.7730954,56.1215229 24.5940126,55.2891837 25.659659,54.2809883 C25.4081356,54.107234 25.0781425,53.8164758 24.923305,53.3127284" id="Fill-6"></path>
            <path d="M33.9178933,55.0754939 C33.1430051,55.1917972 32.8914818,55.6570104 32.2707305,55.6570104 C31.883987,55.6570104 31.6513804,55.4825555 31.6513804,55.2310321 C31.6513804,54.9402738 31.9610554,54.8239706 32.3681169,54.7658189 C32.8522469,54.7076673 33.3363769,54.4946781 33.8597417,54.4946781 C34.2668032,54.4946781 34.4216407,54.6109814 34.4216407,54.7658189 C34.4216407,54.9206564 34.28572,55.0173423 33.9178933,55.0754939 M33.9949618,54.0294649 C33.1815394,54.0294649 32.6974094,54.33914 31.8643696,54.33914 C31.1280156,54.3013064 30.4301958,54.0294649 29.9075316,53.6609376 C29.6167734,53.9713133 29.2678635,54.33914 28.7837336,54.6495156 C29.5200875,55.2891837 30.6242682,56.1215229 32.1158929,56.1215229 C33.1430051,56.1215229 33.4337634,55.5210897 34.1694167,55.462938 C35.022074,55.405487 35.2350631,55.0173423 35.2350631,54.7462015 C35.2350631,54.3783748 34.7509332,54.0294649 33.9949618,54.0294649" id="Fill-8"></path>
            <path d="M28.1586384,52.8306302 C28.08157,52.0942762 27.7326601,51.5519946 26.6866311,51.5519946 C25.9110423,51.5519946 25.4465297,52.0753594 25.4465297,52.8887819 C25.4465297,53.4121467 25.9110423,53.9348109 26.5317936,54.0125799 C27.2289127,54.1092658 27.1903785,54.3811072 27.8678802,54.3811072 C28.2945591,54.3811072 28.6427684,54.1674175 28.7786891,53.8766592 C28.391245,53.6440526 28.21679,53.3343776 28.1586384,52.8306302" id="Fill-10"></path>
            <path d="M28.8175036,50.0411728 C28.1778354,50.0411728 28.2556045,49.8085662 27.8100088,49.8085662 C27.4225647,49.8085662 27.1899581,50.3704653 26.802514,50.5056854 C26.5699074,50.5834544 25.504261,50.6219887 25.504261,51.2420393 C25.504261,51.3394258 25.5624126,51.4746459 25.6212649,51.5517144 L25.9694741,51.3198084 C25.9498567,51.300191 25.9309399,51.2616568 25.9309399,51.2231225 C25.9309399,51.0872018 26.1243117,50.9708985 26.7443623,50.9708985 C28.1974529,50.9708985 28.6241318,51.7072525 28.6822835,52.3273032 C28.7208177,52.7721983 28.8560378,53.160343 29.146796,53.2759457 L29.6120092,52.9662707 C29.6120092,52.7925164 29.5153233,52.6762131 29.5153233,52.4239891 C29.5153233,52.1136134 29.6505434,51.8627907 29.6505434,51.3583426 C29.6505434,50.9316637 29.5342401,50.0411728 28.8175036,50.0411728" id="Fill-12"></path>
            <path d="M19.8828885,52.8155668 C19.0820773,53.3795677 18.0234371,53.9610842 17.1112269,53.948473 L16.4568457,53.9393649 C14.7122964,53.9162444 14.9827365,51.4605634 13.8323148,51.4458504 L10.9933935,51.4143224 L10.9877885,51.830492 L11.864267,51.8360969 C13.3313699,51.8557144 12.9222065,54.269358 15.4003074,54.3814575 C16.0736054,54.4101831 16.6291988,54.4178899 17.2436445,54.4066799 C18.1166198,54.3982725 19.1941768,53.896627 20.2149834,53.2163228 L19.8828885,52.8155668 Z" id="Fill-14"></path>
            <path d="M24.2306699,52.2449801 C22.3761228,52.10976 21.97887,49.5742081 20.763991,49.4466949 C20.2441293,49.3892438 19.7263695,49.292558 19.3606447,49.2463169 C18.7840326,49.1650447 18.0490798,49.3836389 17.3155284,49.854457 L17.5978791,50.2447036 C17.967107,49.9798684 18.3853785,49.8355402 18.6985567,49.8005091 C19.9043275,50.3154664 20.4816403,53.0387851 22.6276462,53.1768077 C24.0975516,53.2650861 24.8822486,52.3710921 24.8822486,52.3710921 L24.853523,52.2323689 C24.6573488,52.2575913 24.5396443,52.2681006 24.2306699,52.2449801" id="Fill-16"></path>
            <path d="M40.5532764,51.4458504 C39.4028547,51.4605634 39.6739955,53.9162444 37.9287455,53.9400655 L37.2743643,53.948473 C36.3628548,53.9610842 35.3035139,53.3802684 34.5027027,52.8148662 L34.1713084,53.2163228 C35.1914144,53.896627 36.2689714,54.3982725 37.1419467,54.4066799 C37.757093,54.4178899 38.3119858,54.4101831 38.9859844,54.3814575 C41.4633847,54.269358 41.0542213,51.8557144 42.5220249,51.8360969 L43.3985033,51.830492 L43.3928983,51.4136217 L40.5532764,51.4458504 Z" id="Fill-18"></path>
            <path d="M48.2888465,20.6163699 C48.391838,20.3571397 48.5417712,20.1140238 48.7561616,19.8414817 C48.3035596,19.4470314 47.4375905,18.9678058 46.4847443,18.70227 C46.0006143,20.2653582 46.4812412,22.5648004 48.2902478,23.9618411 C48.0632462,23.3831271 48.0170051,23.006893 48.0415269,22.465312 C47.3451084,21.5390894 47.0543502,20.8104423 47.0914831,19.8183612 C47.4424949,19.9325626 47.9749678,20.2506451 48.2888465,20.6163699" id="Fill-20"></path>
            <path d="M53.3317853,35.0674042 C53.4978328,35.0582962 53.6393585,35.18651 53.6484666,35.3525575 C53.656874,35.5193056 53.5293608,35.6608313 53.3633133,35.6685381 C53.1972658,35.6776462 53.0550395,35.5494323 53.0466321,35.3833849 C53.0382246,35.218038 53.1657378,35.0765123 53.3317853,35.0674042 M51.4527165,36.6290912 C51.6187639,36.6199831 51.7609902,36.7474964 51.7693977,36.9142445 C51.7778052,37.0795913 51.6502919,37.221117 51.4842445,37.2302251 C51.3174964,37.2393332 51.1759707,37.1111193 51.1675632,36.9450719 C51.1591557,36.7790244 51.286669,36.6367981 51.4527165,36.6290912 M45.5590822,40.0831589 C45.3923341,40.0915663 45.2508084,39.9640531 45.2424009,39.7980056 C45.2339935,39.6319581 45.3615067,39.4897318 45.5275542,39.4813244 C45.6936016,39.4729169 45.8351273,39.6004301 45.8442354,39.7664776 C45.8526429,39.9325251 45.7251296,40.0740508 45.5590822,40.0831589 M42.1799811,31.2938529 C42.0139336,31.2938529 41.8794142,31.1593334 41.8794142,30.9925853 C41.8794142,30.8258372 42.0139336,30.6913177 42.1799811,30.6913177 C42.3467292,30.6913177 42.4812487,30.8258372 42.4812487,30.9925853 C42.4812487,31.1593334 42.3467292,31.2938529 42.1799811,31.2938529 M48.3545649,30.5862244 C48.2340579,30.7018271 48.0434886,30.6976233 47.9285866,30.5771163 C47.8136845,30.4566093 47.8171877,30.26604 47.9376947,30.151138 C48.0582017,30.0362359 48.248771,30.0404397 48.363673,30.1602461 C48.478575,30.2807531 48.4743713,30.4713224 48.3545649,30.5862244 M51.4211885,31.6939082 C51.7413728,31.5909167 52.0629584,31.4374804 52.3929515,31.2013707 C54.4983213,29.6971348 54.9172934,27.8853257 54.8332188,26.4364389 C54.7526472,25.0583149 54.2517023,23.8245192 54.2517023,23.8245192 C54.2517023,23.8245192 54.0268026,24.0522214 53.593818,24.3871188 C52.1113014,25.5452474 51.370043,26.7328021 51.4380034,27.8972362 C51.496155,28.8942217 51.7904164,29.4491145 52.1547399,29.9759824 L52.2472221,29.9227351 C52.2472221,29.9227351 52.0657609,29.2669527 52.0272267,28.6013616 C51.9494576,27.27088 52.7733894,26.2696908 53.7535599,25.4983057 C53.8131128,25.709193 53.9126011,26.1793105 53.9175055,26.6795548 C53.8936843,28.2349362 53.031919,30.4503037 51.4625252,31.22309 C51.4239909,29.9542631 50.1810871,29.5605134 50.1810871,28.2881834 C50.1810871,27.411705 50.5839449,26.245169 50.4676416,25.2103499 C50.1243367,24.8404214 49.6843459,24.110373 49.6121818,23.012498 C49.5211009,21.6224635 50.4017831,20.1189281 51.6551963,19.0560842 C51.7729008,19.3671605 51.9571645,19.9185502 51.9949981,20.5042704 C52.0867796,21.8943049 51.4891488,22.8646667 50.6021611,24.2708155 L50.6827326,24.3878194 C52.3179849,23.5449709 53.0844657,22.1717513 52.9611561,20.2933831 C52.8805846,19.0743004 52.3256918,18.0815187 51.7476784,17.1153606 C51.0848898,18.2118344 50.2714674,18.8788268 49.5568327,19.9297601 C48.9087571,20.8784026 48.6803543,21.8739868 48.7441109,22.849253 C48.8274849,24.1173793 49.1819998,24.6582596 49.8735139,25.494102 C50.0059315,26.0812234 49.8356803,26.7776419 49.7095683,27.4145075 C49.5196997,27.1776972 49.2072222,26.9654087 48.7595246,26.8617166 C48.7595246,26.8617166 48.3685774,26.9598037 47.6833688,26.9598037 C46.5840925,26.9598037 45.6795892,26.5926776 44.652477,25.6398314 C44.652477,25.6398314 45.6305456,25.3946136 46.3879183,25.3946136 C47.1705133,25.3946136 48.1969249,25.8591261 48.5395292,26.2752958 L48.6614375,26.1779093 C48.6614375,26.1779093 47.9769295,24.637241 46.2169665,24.637241 C45.0441248,24.637241 44.2377086,24.9062799 42.9660793,25.3217489 C42.9660793,25.3217489 43.3815482,25.6636525 44.2124862,26.4217258 C45.0924678,27.2288426 45.9969711,27.7171763 47.512417,27.7171763 C47.9769295,27.7171763 48.3930991,27.6190892 48.7350028,27.4726592 C49.0593909,27.537817 49.4223132,27.8138622 49.6198887,28.2503498 C49.6170862,28.2930878 49.6149843,28.3358258 49.6149843,28.3771625 C49.6149843,28.5284969 49.6268949,28.6686213 49.6486142,28.8003383 C49.5561321,28.7814215 49.446835,28.7688103 49.3214236,28.7688103 C48.9003496,28.7688103 48.3447562,28.9495708 48.105844,29.5233805 C47.8753393,29.5065655 47.6399302,29.5815321 47.4605709,29.7531846 C47.1242723,30.0747702 47.1123617,30.6079437 47.4339473,30.9435417 C47.7555329,31.2798404 48.2880058,31.291751 48.6243045,30.9701654 C48.9606031,30.6485798 48.9725137,30.1161069 48.6509281,29.7798082 C48.5920758,29.7188541 48.526918,29.6684093 48.4568558,29.6284738 C48.4589576,29.6186651 48.4624607,29.6081558 48.4659638,29.5990477 C48.5395292,29.3307093 48.8814328,29.1590569 49.2478583,29.1590569 C49.4734586,29.1590569 49.6402067,29.2165079 49.7831337,29.2963789 C50.1180311,30.1574436 50.8368695,30.5974344 50.8368695,31.3106678 C50.8368695,31.701615 50.6659177,32.0687411 50.324014,32.5570748 C49.7614144,33.3887134 49.6149843,33.7796606 49.1995153,34.3415596 C48.8085681,34.8789369 48.3195338,35.0751111 47.9040648,35.7589184 C47.6840694,36.1330507 47.6224147,36.427312 47.4703796,36.8378766 C46.9876509,36.3012 46.7305226,35.6692388 46.7305226,34.928681 C46.7305226,34.8305939 46.7550443,34.7325068 46.7550443,34.6105985 C47.2195569,33.9015688 47.4395523,33.2170609 47.4395523,32.5570748 C47.4395523,30.8461552 45.8995846,29.4526176 43.6505872,29.0378492 C43.6015436,29.4280958 43.5770219,29.7952219 43.5770219,30.1616473 C43.5770219,30.3396054 43.5847287,30.5133597 43.5994418,30.6836109 C43.5532007,30.6780059 43.5055584,30.6745028 43.4551136,30.6745028 C43.202189,30.6745028 43.0151228,30.6969227 42.8721959,30.7193426 C42.7404789,30.4257819 42.4462176,30.2204996 42.1036133,30.2204996 C41.6384001,30.2204996 41.2614653,30.5974344 41.2614653,31.0626475 C41.2614653,31.5271601 41.6384001,31.9040948 42.1036133,31.9040948 C42.5674252,31.9040948 42.9429587,31.5299626 42.9457612,31.0668513 C43.0123203,31.0535394 43.1111081,31.0416289 43.2351182,31.0416289 C43.391357,31.0416289 43.511864,31.0535394 43.6526891,31.0976786 C43.8509651,32.2537053 44.4654109,33.1974435 45.7279321,33.8777477 L45.8014975,33.7796606 C44.7505641,32.6061183 44.4324816,31.3106678 44.4324816,30.5532952 C44.4324816,30.455208 44.4324816,30.3325991 44.4570034,30.2597344 C45.7769757,30.6261599 46.5840925,31.7506586 46.5840925,32.9970655 C46.5840925,33.5344428 46.4369618,34.0725207 46.1441017,34.6105985 C46.1223825,35.696563 46.371804,36.5324054 47.1305779,37.579135 C46.9869503,37.8621864 46.8524308,38.1613521 46.7795661,38.6433802 C46.7550443,38.7905108 46.7550443,38.9369409 46.7550443,39.0833709 C46.7550443,39.4497964 46.8272084,39.923417 46.8328134,40.3542997 C46.7165101,40.1770422 46.5224378,39.943735 46.3108498,39.8316355 C46.3108498,39.8253299 46.3115505,39.8190243 46.3108498,39.8120181 C46.2870287,39.3475055 45.8911771,38.9915894 45.4266646,39.0154106 C44.962152,39.0399323 44.6055353,39.4350833 44.6293565,39.8995958 C44.6538782,40.364809 45.0497298,40.7214257 45.5142423,40.6969039 C45.8393311,40.680089 46.1104719,40.4811123 46.2365839,40.2043665 C46.3493841,40.2975493 46.449573,40.4250625 46.5196353,40.5735944 C46.681479,40.9126956 46.629633,41.1754289 46.5798888,41.4276529 C46.4040326,41.7562448 46.1020644,42.0568117 45.907992,42.5073118 C45.692901,43.009658 45.704111,43.4839792 45.4105503,44.0711007 C45.1527213,44.586058 44.7883977,45.1227346 44.3378976,45.5536173 L44.2923572,45.5452099 C44.3540119,45.3917736 44.4191698,45.2488466 44.4626084,45.0870029 C44.8374413,43.6682429 44.4808245,42.0575123 43.1209168,41.3681001 C43.0473514,41.5509625 42.9674805,41.7569454 42.9044245,41.9937557 C42.6108638,43.104242 42.6031569,44.0879156 43.1517442,44.6883489 L43.2176026,44.6301972 C43.1012994,44.0178534 43.0774782,43.6325111 43.2155008,43.1119488 C43.2841618,42.852018 43.3388103,42.740619 43.3941594,42.6285195 C43.990389,43.2415639 44.0443369,44.4697547 43.8376533,45.2495473 C43.6702046,45.8829098 43.5546019,46.13093 43.411675,46.2948756 C43.2288126,46.4434076 43.0508546,46.5898376 42.9534681,46.6739123 C42.4833505,47.0816744 41.9396677,47.7129351 41.646107,48.0548387 L41.5725416,48.0310176 C41.792537,47.4684179 42.0860977,46.5884364 42.0860977,45.7813195 C42.0860977,44.8775169 41.646107,43.7775399 40.6680383,43.1665973 C40.0816175,44.0213565 39.7144914,44.6575215 39.7144914,45.6348895 C39.7144914,46.2458321 39.8861439,46.9793836 40.3751782,47.8838869 L40.4970865,47.8593651 C40.4970865,47.8593651 40.3016129,46.9793836 40.3016129,46.2458321 C40.3016129,45.0239469 40.8389901,44.3149172 40.8389901,44.3149172 C40.8389901,44.3149172 41.3525462,44.9258598 41.4261116,45.7329766 C41.4996769,46.4413057 41.3287251,48.2257905 40.6442172,49.0574291 C40.5216083,49.2038592 40.3997,49.3012457 40.2532699,49.4238546 C39.2752013,50.205749 37.4171511,51.2083394 36.2197877,51.4290354 L35.7552752,52.6754424 C38.0456093,51.8403007 39.069919,51.3561707 40.1797046,50.6457398 C40.6533252,50.343071 40.7906472,50.2554932 41.2551597,49.9619325 C41.9887112,49.4974199 42.6970403,49.1548156 43.6505872,48.9348202 C43.9679691,49.0083856 44.2860516,49.0329074 44.6034334,49.0329074 C45.288642,49.0329074 45.9241064,48.8612549 46.6086143,48.397443 C47.7085912,47.6638915 48.0995384,45.9039284 48.0995384,45.9039284 C48.0995384,45.9039284 47.9285866,45.8794067 47.6350259,45.8794067 C47.1459915,45.8794067 46.3879183,45.952972 45.6060239,46.2948756 C44.7260423,46.6858229 44.3105733,47.3955532 44.3105733,47.3955532 L44.4086605,47.4438961 C44.4086605,47.4438961 45.019603,47.0284271 45.704111,46.8084317 C46.3640971,46.5884364 47.0724262,46.5639146 47.0724262,46.5639146 C47.0724262,46.5639146 46.5840925,47.7129351 45.6795892,48.1284041 C45.2634196,48.3238777 44.9215159,48.397443 44.5305687,48.397443 C44.2377086,48.397443 43.9441479,48.3483994 43.6015436,48.2755347 C43.0641664,48.3729212 42.5260885,48.6419602 42.0615759,48.812912 L42.0125324,48.7400473 C42.2087066,48.5193513 42.4770449,48.2019694 43.0151228,47.6638915 C43.7241525,46.9555624 44.5305687,46.4413057 45.288642,45.6348895 C45.5023318,45.4008817 45.6606724,45.1871919 45.78188,44.9994251 C46.0523202,45.0884041 46.6492504,45.2523498 47.3631844,45.2453435 C48.8302874,45.2327323 50.2896835,44.4613472 50.5944542,42.9676206 C50.39828,42.9452007 50.1782846,42.9227808 49.9337674,42.9248827 C48.784747,42.9346914 47.8340026,43.1883166 47.4003174,43.8763277 L47.4738828,43.9246706 C48.0336799,43.6507273 48.3987041,43.5253159 48.936782,43.519711 C49.2058209,43.5183097 49.3284298,43.5414302 49.4503381,43.5645508 C49.0173535,44.302306 47.8473144,44.6792408 47.0408982,44.686247 C46.4832029,44.6911513 46.2050559,44.6589227 46.0130854,44.5909624 C46.0551227,44.5061871 46.0894532,44.4291186 46.11958,44.3646614 C46.3640971,43.8258829 46.3984276,43.1715017 46.6576578,42.6768624 C46.7298219,42.5381392 46.8223041,42.3917091 46.9189899,42.2326679 C47.0647194,42.2571897 47.21185,42.2775077 47.3589807,42.2894183 C50.7703104,42.5612597 52.5786164,40.7935898 53.4011469,38.4801352 C52.9422393,38.3939586 52.4356895,38.2853622 51.8737904,38.2601398 C50.2371369,38.1865745 48.5248161,38.9803795 48.037183,40.5532764 L48.1324677,40.585505 C48.400806,40.307358 48.8604142,39.8330367 49.5981694,39.4918337 C50.9146386,38.8836936 51.9999024,39.1646431 51.9999024,39.1646431 C51.9999024,39.1646431 51.6579988,40.1777429 50.088605,41.0254958 C48.7553208,41.7443342 47.1943345,41.7163093 47.1943345,41.7163093 C47.1943345,41.7163093 47.464074,40.9771528 47.464074,40.5504739 C47.464074,40.0859614 47.3905087,39.6704924 47.3905087,39.2550234 C47.3905087,38.3014765 47.7085912,37.9840946 47.9524077,37.3241085 C48.0610042,37.0242422 48.1093471,36.848386 48.1660975,36.6774342 C48.3237375,36.7390889 48.5374273,36.7860306 48.8330899,36.7860306 C49.4685543,36.7860306 49.7375932,36.4441269 50.2994922,36.4441269 C50.4655397,36.4441269 50.6014604,36.4714512 50.7128594,36.5113867 C50.6042629,36.6606192 50.5440094,36.8476854 50.5545187,37.0473627 C50.5790405,37.5111746 50.9748921,37.868492 51.4394046,37.8446708 C51.9039172,37.820149 52.2605339,37.4235968 52.2367127,36.9597849 C52.212191,36.4952724 51.8163394,36.137955 51.3518269,36.1624768 C51.2376254,36.1680818 51.1297296,36.1968073 51.0330437,36.243749 C50.8382708,36.1141339 50.5860467,36.0524791 50.2749705,36.0524791 C49.7123708,36.0524791 49.4195107,36.2969963 48.8576117,36.2969963 C48.6572337,36.2969963 48.4988931,36.2311378 48.3804879,36.1540693 C48.3994047,36.1141339 48.4190222,36.0734978 48.4421427,36.0279573 C48.5913752,35.7287916 48.9900293,35.3735762 49.3144174,35.0681049 C49.5484252,35.260776 49.8945326,35.4170147 50.3975794,35.4170147 C51.0820873,35.4170147 51.570421,34.928681 52.1330207,34.928681 C52.3095775,34.928681 52.4511031,34.9574066 52.5611008,34.9952402 C52.4721218,35.1374665 52.4244795,35.3063164 52.4335876,35.4863763 C52.4574087,35.9508889 52.8539609,36.3075056 53.3177729,36.2829838 C53.782986,36.2584621 54.1396027,35.8626105 54.115081,35.3987986 C54.0912598,34.934286 53.6954082,34.5769687 53.2308957,34.6014905 C53.0613451,34.6105985 52.9065076,34.6694508 52.7782937,34.761933 C52.6227556,34.6771577 52.3852447,34.5860768 52.0839771,34.5860768 C51.5458992,34.5860768 51.008522,34.928681 50.3975794,34.928681 C50.1229354,34.928681 49.8784183,34.8004672 49.699059,34.6694508 C49.9239587,34.3800938 50.0731913,34.114558 50.2392387,33.8245004 C50.5538181,33.8924607 51.1108128,33.9793379 51.7511815,33.9239888 C53.2350994,33.7950743 54.6524582,32.8989784 54.8431523,31.3632145 C54.6426495,31.3555076 54.4177498,31.3499026 54.1704301,31.3716219 C53.0087985,31.4725115 52.0650603,31.8039059 51.6804187,32.5346548 L51.7588884,32.5773928 C52.3039725,32.2558072 52.6640923,32.1002691 53.2084758,32.0526267 C53.4803172,32.0295062 53.6064292,32.0435187 53.7318406,32.0575311 C53.3514027,32.8380243 52.1960767,33.3123455 51.3805524,33.3831084 C50.954574,33.4195407 50.6890382,33.4223432 50.4977683,33.3985221 C50.6035623,33.2352771 50.7534955,33.0061736 50.8130484,32.9235002 C51.1738688,32.4239565 51.3490244,32.0337099 51.4211885,31.6939082" id="Fill-22"></path>
            <path d="M8.34728343,24.2549815 L8.42715437,24.3348524 C7.89538209,25.0529902 7.20456856,26.3547463 7.07145033,27.4715382 C7.09807398,27.2060023 6.96495575,26.1957051 6.93833211,25.9560923 C7.20456856,25.318526 7.8421348,24.4679706 8.34728343,24.2549815 M5.02423215,28.8538658 L5.76899359,29.1992726 C5.76899359,28.2688463 5.76899359,25.2120314 5.63587536,23.8563274 L5.76899359,23.8297038 C6.30076587,25.7438037 6.43388409,27.4449145 6.59292534,29.571303 L7.15062065,29.9433334 C7.31106314,27.7636976 7.92200573,24.6536355 11.0327685,22.55317 C9.70298747,22.7395356 7.57659897,23.9361983 6.72604357,25.2912018 C6.64617263,24.6003882 5.5300814,19.5496025 3.40299228,17.6095795 C4.81194361,20.0813748 5.07747944,23.3511788 5.07747944,26.0892105 C5.07747944,27.1261314 5.05085579,28.0565577 5.02423215,28.8538658" id="Fill-24"></path>
            <path d="M3.77509276,30.2629573 C4.86526096,30.7947296 5.87555823,31.4589195 6.56637176,32.2303045 L6.61961905,32.1763566 C6.48650083,31.7510789 6.32745958,31.3265019 5.29053866,30.5018695 L5.34308533,30.4226992 C6.40662989,30.6875344 7.55004539,31.7510789 7.44355081,33.5320607 C7.70908663,33.8515444 8.13506496,34.2768221 8.40060079,34.6222289 L8.45384808,34.6488525 C8.61288932,31.6985323 7.0715204,30.2888803 5.10417315,29.4649486 C3.40306235,28.8007587 1.46233874,28.1891155 0.398794179,25.6367486 C0.266376576,28.0293736 1.96748738,29.4117013 3.77509276,30.2629573" id="Fill-26"></path>
            <path d="M9.38413429,27.4447043 C9.06465054,27.4447043 8.77249107,27.5245753 8.4803316,27.7375644 C7.84206474,28.2160894 7.92193567,29.5977165 7.70894651,30.3158543 C8.02843025,30.661261 8.26734244,31.0332914 8.4803316,31.4319455 C8.82573836,30.5281428 8.45370795,28.801109 9.01210388,28.4017543 C9.17114513,28.2952597 9.330887,28.2427131 9.51655189,28.2427131 C10.6067201,28.2427131 12.0955424,29.9172002 13.2655815,29.9172002 C12.5474437,29.0932685 12.3344545,28.4809246 11.8300065,27.8167347 C11.2716106,27.0726739 10.5002255,26.6733192 9.78278834,26.6733192 C9.43738158,26.6733192 9.09197481,26.7805145 8.79911472,26.992803 L8.82573836,27.0992976 C9.01210388,27.0460503 9.19776877,27.0201273 9.35751064,27.0201273 C10.1548188,27.0201273 10.8197093,27.4180807 11.1917397,27.9764766 L11.1384924,28.0563476 C10.6599674,27.7901111 10.0224011,27.4447043 9.38413429,27.4447043" id="Fill-28"></path>
            <path d="M3.21676689,28.0831113 C3.1635196,27.2584789 3.00377773,26.4618715 2.76486555,25.5580688 L2.87136013,25.5307445 C3.34988512,26.3280526 3.66866824,27.4448445 3.85503375,28.3220235 L4.28031145,28.5076884 C4.06732229,26.4079235 2.92460742,23.8037107 1.01050746,22.5531 C2.36621149,24.4679006 2.57850003,26.9130722 2.76486555,27.8701222 L3.21676689,28.0831113 Z" id="Fill-30"></path>
            <path d="M10.9790308,45.5480123 L11.0589017,45.494765 C12.0958226,47.434788 13.3184084,49.3495886 16.4284705,51.0773231 L16.3752232,51.157194 C14.8871016,50.5721744 13.823557,49.9079845 12.7333888,49.0041819 C11.4841794,47.2491231 11.0056544,45.8934191 10.9790308,45.5480123 L10.9790308,45.5480123 Z M13.2917848,50.7851636 C12.7333888,50.305938 11.8562098,49.6949954 10.4206348,48.9236103 L10.4738821,48.8437394 C10.7401186,48.8178163 11.4309321,48.8437394 12.3347348,49.4820062 C14.4877469,50.9974521 16.0830638,51.9005542 19.511909,52.6719393 L19.1665023,51.7947602 C16.7738773,50.9175812 14.6208652,49.322965 13.3450321,45.0428637 C13.3184084,45.2285286 13.3184084,45.3882705 13.3184084,45.574636 C13.3184084,46.451815 13.5839442,47.4887359 14.3287057,48.7379454 L14.2488347,48.7911927 C12.7067652,47.4081644 10.659547,44.3254265 10.3141402,41.453576 L10.2882172,41.453576 C10.1018517,42.1184665 10.0486044,42.7567333 10.0486044,43.3950002 C10.0486044,45.0428637 10.2615936,46.0797846 11.032278,47.3815407 L10.9790308,47.434788 C9.03830715,45.574636 8.34749362,42.5969915 8.34749362,40.3641084 C8.34749362,38.9551571 8.55978216,38.4233848 8.55978216,37.1475517 C8.55978216,34.6750558 5.66270919,33.0271923 3.2434606,30.3956551 C3.74860923,32.2032605 4.38617547,33.6920828 6.14123419,35.0744105 L6.19378085,35.0211632 C5.79582742,34.3562727 5.39647274,33.6654591 5.02444233,33.0005686 L5.07768962,32.948022 C6.96516594,34.6218085 7.36381999,35.4198172 7.25732541,37.0410571 C7.12490781,38.8759867 7.23070177,40.1518198 7.86896863,42.3314556 L7.7358504,42.4379502 C7.12490781,41.5607712 6.75217678,40.390732 6.40677001,38.4500084 C6.00811596,36.1638781 5.55621461,35.5256112 4.73158224,34.5160145 C4.7589065,34.7023801 5.21080785,35.5522348 5.44972003,37.5728294 C5.68933284,39.6992179 6.24702814,41.5068233 8.18775175,44.8039515 L8.05463352,44.9097455 C6.35352272,42.7301097 4.9445714,40.2842374 4.57254099,36.1372544 C4.38617547,36.642403 4.27968089,37.200799 4.27968089,37.7858185 C4.27968089,38.3442145 4.25375787,38.9551571 4.44012339,39.513553 L4.36025245,39.5401766 C3.85510382,38.6629976 2.76493561,37.9448598 1.43585522,37.9988077 L1.45827513,38.014922 C2.82659037,39.0840716 4.44082401,42.1191671 5.1841842,43.1553874 L5.39647274,42.9956455 L3.48237278,39.7531658 L3.53562007,39.6992179 C4.73158224,40.6569685 5.90162138,42.8366043 6.96516594,44.4578441 C6.4600173,44.2988029 5.82175044,44.164984 5.15685994,44.164984 C4.73158224,44.164984 4.44012339,44.2189319 4.12063964,44.3513496 C5.34322545,44.7766273 7.28394906,46.2654495 8.79939496,47.7010245 L8.98505986,47.5419832 C8.98505986,47.5419832 8.00138623,46.3186968 6.24702814,45.0428637 L6.30027543,44.9629928 C6.56651188,44.9629928 7.54948489,45.2558529 8.71952403,46.2388259 C9.57007943,46.9569637 10.2882172,47.6477772 11.0589017,48.3385907 L11.0056544,48.4191623 C10.7401186,48.3652144 10.4206348,48.3385907 10.1284754,48.3385907 C9.67657401,48.3385907 9.19804902,48.3925386 8.77277132,48.5249562 L8.79939496,48.5515799 C9.83631588,48.8178163 11.7230916,49.9339076 13.0794962,50.9974521 L13.2917848,50.7851636 Z" id="Fill-32"></path>
            <path d="M3.73571779,37.4251382 L3.90176526,37.3375604 C3.67756614,35.3176665 3.16401004,33.7447696 1.88747632,31.299598 L1.96734725,31.2463507 C2.95102088,32.176777 3.40292222,32.9208378 3.88144721,34.0901763 L3.9346945,34.0376297 C3.80157628,33.0007088 3.42954587,31.8579939 2.68478442,31.0067379 C1.808306,30.0237649 1.3830283,30.1828061 -3.23545436e-13,28.5881899 C0.585019571,30.5548365 0.771385087,31.219727 1.75505871,33.1863737 C2.4192486,34.569402 3.33706373,35.830522 3.73571779,37.4251382" id="Fill-34"></path>
            <path d="M3.15385101,37.7706851 C2.92054381,36.9082191 2.4980686,35.9546723 1.98801561,35.0859007 C1.55362982,34.9030383 0.867720645,34.7650157 0.0683106684,34.7208765 C1.33363443,35.6653153 2.09310894,36.4801389 2.89882452,37.8022131 L3.15385101,37.7706851 Z" id="Fill-36"></path>
            <path d="M22.4151475,32.4818279 C24.2101416,36.8228833 26.8816142,40.7470685 32.5587563,42.0824545 C32.5587563,42.0824545 32.8088784,41.7489583 33.0597012,41.3727242 C28.551197,40.0793755 26.2972953,36.5307239 24.5863758,32.4818279 C24.1681043,32.2730425 22.9160924,32.1062944 22.4151475,32.4818279" id="Fill-38"></path>
            <path d="M38.4028565,18.6233098 L38.4028565,18.5399358 C37.0254332,19.0408807 35.898132,19.8753218 34.9796163,21.1693711 C35.3558504,21.3781565 35.898132,21.5028672 36.2323288,21.5028672 C36.7746105,20.3762667 37.5263781,19.3743769 38.4028565,18.6233098" id="Fill-40"></path>
            <path d="M39.1123767,41.0391579 C38.9876659,39.9959314 38.5280577,39.1607897 37.9437388,38.535134 C37.7349534,39.1607897 37.4014572,39.9538941 37.4014572,39.9538941 C37.5261679,40.3714649 37.6515793,40.7890358 37.7349534,41.3313174 C38.1104869,41.3313174 38.6948058,41.2479433 39.1123767,41.0391579" id="Fill-42"></path>
            <path d="M34.6459099,38.0751755 C34.812658,37.699642 34.8546953,37.1153231 34.8546953,37.1153231 C33.1851125,36.9899117 32.0578114,37.699642 32.0578114,38.8269432 C32.0578114,39.6200476 32.6007936,40.0789551 33.1851125,40.0789551 C33.0176638,39.8708703 32.9342898,39.6200476 32.9342898,39.3278881 C32.9342898,38.7022324 33.393898,38.1172129 34.6459099,38.0751755" id="Fill-44"></path>
            <path d="M40.6152114,19.1658717 C40.9494082,20.9608659 39.6966956,22.2549152 37.1506344,22.2549152 C34.9801067,22.2549152 32.1832227,20.7520804 32.1832227,20.7520804 C31.7243152,22.8392341 28.1343268,31.6887936 27.6747186,32.6486461 C27.9668781,32.9828429 28.0089154,33.0241796 28.3010749,33.232965 C28.6345711,32.7320201 29.0941793,32.3564866 29.6371615,32.0643271 C29.6371615,32.0643271 29.8872837,31.4800082 30.012695,31.1044747 C29.5951242,31.2298861 29.2609274,31.4386715 28.9274312,31.6467563 L32.2665968,23.1313936 C33.7694315,23.7157125 34.9380694,24.0499093 36.3154927,24.0499093 C39.8641444,24.0499093 41.4083158,22.3375886 41.4083158,20.7100431 C41.4083158,20.0003128 40.9907449,19.3326198 40.6152114,19.1658717" id="Fill-46"></path>
            <path d="M20.7456347,21.5865916 C20.9544201,21.8787511 21.4133277,22.7559301 21.7054872,23.3822864 C22.039684,23.2982117 22.5406289,23.1314636 22.5406289,23.1314636 L25.8797945,31.6468263 C24.8779047,30.9791334 23.5838554,30.6456372 22.3731802,30.6456372 C19.2848374,30.6456372 17.1976837,32.8988383 17.1976837,36.2387045 C17.1976837,37.7415392 17.697928,39.327748 18.7838924,41.1640789 C18.7838924,41.1640789 19.7437449,41.1640789 20.7456347,40.8719194 C19.827119,39.2030372 19.2428,37.5327538 19.2428,35.863171 C19.2428,33.1496611 20.6622607,31.5221156 22.9161624,31.5221156 C24.4603338,31.5221156 25.6710091,32.1064345 26.5061508,33.2330351 C26.7983103,33.0242497 26.839647,32.982913 27.1325071,32.6487161 C26.6308615,31.6888637 23.1249478,22.8393042 22.6660403,20.7521505 C22.6660403,20.7521505 21.8722353,21.127684 20.7456347,21.5865916" id="Fill-48"></path>
            <path d="M37.5681352,36.2387746 C37.5681352,32.8989084 36.4828714,31.2713629 33.64395,30.7283807 C33.4772019,31.1879888 33.3938279,31.6468964 33.3938279,31.6468964 C34.7292139,31.9390559 35.5643556,32.982983 35.5643556,35.5710816 C35.5643556,40.3297078 32.0164046,44.7541373 28.1342567,46.7992536 C28.1342567,46.7992536 29.0107352,47.2175251 29.6784282,47.2175251 C35.0634107,44.7128006 37.5681352,39.2864813 37.5681352,36.2387746" id="Fill-50"></path>
            <path d="M45.0816782,36.6978923 C45.0816782,34.2345045 43.2446467,32.8577818 41.3249417,32.8577818 C39.6553589,32.8577818 39.0703394,33.8176343 39.0703394,34.652776 C39.0703394,35.7380399 39.9054811,36.1969474 40.6152114,36.2389848 C40.3230519,35.9468253 40.0729298,35.4458804 40.0729298,34.9449355 C40.0729298,34.4439906 40.406426,33.858971 41.3249417,33.858971 C42.2434575,33.858971 43.4954694,34.7781874 43.4954694,36.8646404 C43.4954694,39.2439535 41.6591385,41.8740894 36.8998117,41.8740894 L36.4829414,41.8740894 C36.3988668,42.1662489 36.1487446,42.5831191 36.1487446,42.5831191 L37.1092977,42.5831191 C40.9494082,42.5831191 45.0816782,40.329918 45.0816782,36.6978923" id="Fill-52"></path>
            <path d="M29.2195206,43.2935501 C29.2195206,43.2935501 28.0508827,42.5831191 27.299115,41.8740894 C26.548048,42.5831191 25.3794101,43.2935501 25.3794101,43.2935501 C25.3794101,43.2935501 26.5893847,44.462188 27.299115,44.7543475 C28.0088454,44.462188 29.2195206,43.2935501 29.2195206,43.2935501" id="Fill-54"></path>
            <path d="M24.7947408,47.8852181 C24.4192073,47.9272554 24.1263472,47.9272554 23.792851,47.9272554 C19.7439551,47.9272554 17.0304452,45.00496 17.0304452,42.1660387 C17.0304452,41.2895603 17.1558565,40.5384933 17.4059787,39.9541743 C17.1138192,39.4532294 16.780323,38.6173871 16.780323,38.6173871 C16.0705927,39.3698554 15.6109845,40.4551192 15.6109845,41.7905052 C15.6109845,45.9227752 19.2430102,48.5949484 23.5006916,48.5949484 C24.2937959,48.5949484 25.3790598,48.469537 26.0887901,48.386163 C25.6291819,48.2607516 24.7947408,47.8852181 24.7947408,47.8852181" id="Fill-56"></path>
            <path d="M37.6515793,43.1683489 C37.1092977,45.6310361 34.5204985,47.9269752 30.9725475,47.9269752 C28.8020198,47.9269752 26.4227067,46.9243847 24.3768897,45.2968393 C23.5004113,44.5871089 22.6239329,43.7526678 21.9142026,42.8334515 C21.1210982,43.0429375 19.993797,43.1256109 19.993797,43.1256109 C22.2904367,46.0479063 26.0051358,48.5946682 31.3067443,48.5946682 C35.1055181,48.5946682 38.4026464,46.4234398 39.0703394,43.0429375 C38.4860204,43.1256109 37.6515793,43.1683489 37.6515793,43.1683489" id="Fill-58"></path>
            <path d="M28.1340466,18.4146645 C26.0889302,19.4165543 24.878255,20.8353144 24.878255,22.5055978 C24.878255,24.1751806 26.0889302,25.2604444 27.5076903,25.2604444 C28.8858142,25.2604444 30.0124148,24.1331433 30.0124148,22.6723459 C30.0124148,21.7117928 29.7202553,20.8773517 29.1359364,20.1676214 C28.5095801,20.2930328 28.0920092,20.5851922 28.0920092,20.5851922 C28.8437769,21.1695112 29.3026845,21.8372042 29.3026845,22.7143832 C29.3026845,23.8409838 28.5095801,24.6761255 27.5076903,24.6761255 C26.4644638,24.6761255 25.7126961,23.8409838 25.7126961,22.7143832 C25.7126961,21.0861371 27.2155308,20.0842473 29.3026845,19.3331803 C33.0601215,17.9550563 36.1071277,18.1645424 41.1992501,18.1645424 C45.9165396,18.1645424 48.2958528,14.574554 48.4633015,12.9042706 C44.8312758,17.0365406 40.0306122,16.0766881 33.435655,16.9531665 C31.1817533,17.2032887 28.9691883,17.9963931 28.1340466,18.4146645" id="Fill-60"></path>
            <path d="M15.5693675,34.652776 C15.5693675,33.8176343 14.9850486,32.8570812 13.3154658,32.8570812 C11.3950602,32.8570812 9.55802873,34.2345045 9.55802873,36.6978923 C9.55802873,39.4534396 12.0634539,41.5398926 15.0270859,42.2909597 C15.0270859,41.9988002 15.0684226,41.5398926 15.0684226,41.5398926 C12.2715387,40.7467883 11.1449381,38.7016719 11.1449381,36.8646404 C11.1449381,34.7781874 12.39695,33.858971 13.3154658,33.858971 C14.2332809,33.858971 14.5674777,34.4439906 14.5674777,34.9449355 C14.5674777,35.4458804 14.3173556,35.9468253 14.0244955,36.2389848 C14.7349265,36.1969474 15.5693675,35.7380399 15.5693675,34.652776" id="Fill-62"></path>
            <path d="M13.3986997,20.7101132 C13.3986997,22.3383593 14.9435718,24.0499794 18.4915228,24.0499794 L18.7416449,24.0499794 C18.7416449,24.0499794 18.3661114,22.8393042 18.0319146,22.2549852 L17.6563811,22.2549852 C15.1103199,22.2549852 13.8576073,20.9602353 14.1918041,19.1659418 C13.8162706,19.3326898 13.3986997,20.0003828 13.3986997,20.7101132" id="Fill-64"></path>
            <path d="M17.53132,41.8738792 C17.53132,41.8738792 17.53132,42.4161609 17.5733573,42.5843102 C21.5388792,42.5843102 24.4611746,41.6237571 26.6310017,40.1209224 C26.1720941,39.7867256 25.6711492,39.1190326 25.6711492,39.1190326 C23.792781,40.7886154 21.2467197,41.8738792 17.7401054,41.8738792 L17.53132,41.8738792 Z" id="Fill-66"></path>
            <path d="M22.7075872,38.8270833 C22.7075872,37.6997821 21.580286,36.9900518 19.9107032,37.1154632 C19.9107032,37.1154632 19.9520399,37.6997821 20.1194886,38.0760163 C21.3715006,38.1166524 21.8311088,38.7016719 21.8311088,39.3280282 C21.8311088,39.6201877 21.7470341,39.8703098 21.580286,40.0790953 C22.1646049,40.0790953 22.7075872,39.6201877 22.7075872,38.8270833" id="Fill-68"></path>
            <path d="M33.1851125,24.1749003 C32.4753822,25.8858198 31.7243152,28.0570482 31.0138842,30.0187904 C30.1374058,32.3981036 29.1362166,34.819454 27.7580927,36.7811963 C28.0089154,37.1987672 28.5098603,37.7410488 28.9274312,38.0752456 C31.0559215,35.7793065 32.5167189,32.2733928 33.5606461,28.7667785 C34.061591,28.2658336 34.6459099,27.9736741 35.4390143,27.9736741 C36.5242781,27.9736741 36.9831857,28.6834045 37.025223,30.1021645 L37.4014572,30.1021645 C37.8183274,28.391245 38.4446837,26.8463729 39.4045362,25.0513788 C39.4045362,25.0513788 39.1123767,24.8846307 38.8202172,24.8846307 C37.5682053,26.9304476 35.9399592,26.5542135 33.8528055,27.8903001 C34.2283391,26.8050362 34.5625359,25.6356977 34.8967327,24.5924712 C34.3537504,24.5504339 33.7273942,24.3836858 33.1851125,24.1749003" id="Fill-70"></path>
            <path d="M17.6147641,30.1021645 C17.6568015,28.6834045 18.115709,27.9736741 19.2009729,27.9736741 C19.9940772,27.9736741 20.5783962,28.2658336 21.0793411,28.7667785 C21.2047525,29.1836487 21.3301639,29.6432569 21.4548746,30.0601272 C22.331353,29.8520424 23.6261029,30.0187904 23.6261029,30.0187904 C21.7470341,24.9680047 20.2862367,20.000593 16.1960041,18.5397957 L16.1960041,18.6231697 C18.4912425,20.668286 19.6185437,24.049489 20.7871816,27.8903001 C18.700028,26.5549141 17.0724825,26.9304476 15.8197699,24.8846307 C15.5276105,24.8846307 15.235451,25.0513788 15.235451,25.0513788 C16.1960041,26.8470736 16.8216597,28.391245 17.2392306,30.1021645 L17.6147641,30.1021645 Z" id="Fill-72"></path>
            <path d="M13.8578175,18.1641921 C18.9506405,18.1641921 21.9142726,18.0387807 25.6296724,19.416204 C25.6296724,19.416204 26.3807394,18.6230996 26.9237216,18.4143142 C26.0885799,17.997444 23.8760149,17.203639 21.6221131,16.9528162 C15.0264554,16.0770384 10.2257918,17.0368909 6.59446671,12.9039203 C6.76191543,14.5742037 9.14122856,18.1641921 13.8578175,18.1641921" id="Fill-74"></path>
            <path d="M28.947539,4.51579059 C28.947539,4.70425797 29.1002747,4.856293 29.2880414,4.856293 C29.4765088,4.856293 29.6292445,4.70425797 29.6292445,4.51579059 C29.6292445,4.3273232 29.4765088,4.17458756 29.2880414,4.17458756 C29.1002747,4.17458756 28.947539,4.3273232 28.947539,4.51579059" id="Fill-76"></path>
            <path d="M31.0706346,4.90029207 C31.3375717,4.90029207 31.5239372,4.71322593 31.5239372,4.44698948 C31.5239372,4.18775925 31.3291642,3.99368689 31.0706346,3.99368689 C30.8247162,3.99368689 30.617332,4.20107108 30.617332,4.44698948 C30.617332,4.70551909 30.812105,4.90029207 31.0706346,4.90029207" id="Fill-78"></path>
            <path d="M30.1260557,5.01932779 C30.3145231,5.01932779 30.4672587,4.86659214 30.4672587,4.67882538 C30.4672587,4.48965738 30.3145231,4.33692173 30.1260557,4.33692173 C29.9375883,4.33692173 29.7855533,4.48965738 29.7855533,4.67882538 C29.7855533,4.86659214 29.9375883,5.01932779 30.1260557,5.01932779" id="Fill-80"></path>
            <path d="M25.7550137,4.85650318 C25.9434811,4.85650318 26.0955161,4.70376753 26.0955161,4.51600077 C26.0955161,4.32753339 25.9434811,4.17409712 25.7550137,4.17409712 C25.5665463,4.17409712 25.4138106,4.32753339 25.4138106,4.51600077 C25.4138106,4.70376753 25.5665463,4.85650318 25.7550137,4.85650318" id="Fill-82"></path>
            <path d="M24.9169294,5.01932779 C25.1053967,5.01932779 25.2581324,4.86659214 25.2581324,4.67882538 C25.2581324,4.48965738 25.1053967,4.33692173 24.9169294,4.33692173 C24.728462,4.33692173 24.5764269,4.48965738 24.5764269,4.67882538 C24.5764269,4.86659214 24.728462,5.01932779 24.9169294,5.01932779" id="Fill-84"></path>
            <path d="M23.9815987,4.90029207 C24.2401283,4.90029207 24.4349013,4.70551909 24.4349013,4.44698948 C24.4349013,4.20107108 24.2275171,3.99368689 23.9815987,3.99368689 C23.7230691,3.99368689 23.5282961,4.18775925 23.5282961,4.44698948 C23.5282961,4.71322593 23.7146616,4.90029207 23.9815987,4.90029207" id="Fill-86"></path>
            <path d="M34.5042441,8.50604443 C34.3157767,8.50604443 34.1637417,8.65878008 34.1637417,8.84724746 C34.1637417,9.03571485 34.3157767,9.18845049 34.5042441,9.18845049 C34.6927115,9.18845049 34.8454471,9.03571485 34.8454471,8.84724746 C34.8454471,8.65878008 34.6927115,8.50604443 34.5042441,8.50604443" id="Fill-88"></path>
            <path d="M36.1155351,7.12532818 C36.1155351,6.87940978 35.9081509,6.67272622 35.6629332,6.67272622 C35.4037029,6.67272622 35.2096306,6.86679858 35.2096306,7.12532818 C35.2096306,7.38385779 35.4037029,7.57793015 35.6629332,7.57793015 C35.9081509,7.57793015 36.1155351,7.37124659 36.1155351,7.12532818" id="Fill-90"></path>
            <path d="M35.088563,8.38287504 C35.2770304,8.38287504 35.4290654,8.22943877 35.4290654,8.04167201 C35.4290654,7.85320463 35.2770304,7.70046898 35.088563,7.70046898 C34.9000957,7.70046898 34.74736,7.85320463 34.74736,8.04167201 C34.74736,8.22943877 34.9000957,8.38287504 35.088563,8.38287504" id="Fill-92"></path>
            <path d="M34.0212351,16.1602023 L34.0212351,15.092454 L34.0128277,15.0910527 C33.1769853,14.9095916 30.7451255,14.5669873 27.5257663,14.5669873 C24.3071078,14.5669873 21.875248,14.9095916 21.038705,15.0910527 L21.0309982,15.092454 L21.0309982,16.1602023 L21.0429087,16.1581004 C21.8787511,15.9906517 24.3092096,15.6746711 27.5257663,15.6746711 C30.7430237,15.6746711 33.1734822,15.9906517 34.0086239,16.1581004 L34.0212351,16.1602023 Z" id="Fill-94"></path>
            <path d="M19.3895804,6.67167528 C19.143662,6.67167528 18.9362778,6.87976009 18.9362778,7.12497787 C18.9362778,7.37089628 19.143662,7.57828046 19.3895804,7.57828046 C19.64811,7.57828046 19.842883,7.3842081 19.842883,7.12497787 C19.842883,6.86644827 19.64811,6.67167528 19.3895804,6.67167528" id="Fill-96"></path>
            <path d="M21.9765579,8.23098014 L21.9373231,8.25760379 L22.1110774,8.680079 L22.1531147,8.648551 C22.1566179,8.64574851 22.5167377,8.3809133 23.1942394,8.11888058 C23.8198951,7.87716591 24.8519116,7.58921017 26.2167237,7.58921017 L26.2734741,7.58921017 L26.1256428,7.14501567 L26.0962167,7.14501567 C23.6762675,7.14501567 22.3310728,7.97665427 21.9765579,8.23098014" id="Fill-98"></path>
            <path d="M32.8991185,8.64834081 L32.9411559,8.67986881 L33.1149102,8.2573936 L33.0756753,8.23076995 C32.7211605,7.97644408 31.3759658,7.14480548 28.9560166,7.14480548 L28.9265904,7.14480548 L28.7787591,7.58899998 L28.8348089,7.58899998 C31.4474293,7.58899998 32.8844055,8.63713085 32.8991185,8.64834081" id="Fill-100"></path>
            <path d="M35.5863551,10.7700351 L35.6122782,10.8176775 L35.9338638,10.4960918 L35.9205519,10.4701688 C35.8876227,10.405011 35.45674,9.72470676 34.9417827,9.34847261 L34.9186621,9.33095706 L34.5907709,9.61540969 C35.2003123,10.067311 35.582852,10.7630289 35.5863551,10.7700351" id="Fill-102"></path>
            <path d="M20.1107308,9.34763187 C19.5950729,9.72456663 19.1641902,10.4055715 19.1319616,10.4707293 L19.1179491,10.4966523 L19.4395347,10.818238 L19.4661584,10.769895 C19.4696615,10.7635894 19.8515006,10.0671709 20.461042,9.61526956 L20.1338514,9.33151756 L20.1107308,9.34763187 Z" id="Fill-104"></path>
            <path d="M38.266025,6.59166422 C38.5245546,6.59166422 38.7193276,6.39689124 38.7193276,6.13906226 C38.7193276,5.89244323 38.5119434,5.68505904 38.266025,5.68505904 C38.0201066,5.68505904 37.8127224,5.89244323 37.8127224,6.13906226 C37.8127224,6.39689124 38.0074954,6.59166422 38.266025,6.59166422" id="Fill-106"></path>
            <path d="M37.1784491,6.14894103 C37.4369787,6.14894103 37.6317517,5.95416805 37.6317517,5.69563844 C37.6317517,5.44972003 37.4243675,5.24233585 37.1784491,5.24233585 C36.9325307,5.24233585 36.7251465,5.44972003 36.7251465,5.69563844 C36.7251465,5.95416805 36.9199195,6.14894103 37.1784491,6.14894103" id="Fill-108"></path>
            <path d="M38.9105274,10.0742472 C39.1564458,10.0742472 39.36383,9.86686301 39.36383,9.62164523 C39.36383,9.37572682 39.1564458,9.16764201 38.9105274,9.16764201 C38.664609,9.16764201 38.4572248,9.37572682 38.4572248,9.62164523 C38.4572248,9.86686301 38.664609,10.0742472 38.9105274,10.0742472" id="Fill-110"></path>
            <path d="M16.824182,6.59166422 C17.0827116,6.59166422 17.2774846,6.39689124 17.2774846,6.13906226 C17.2774846,5.89244323 17.0701004,5.68505904 16.824182,5.68505904 C16.5782636,5.68505904 16.3708794,5.89244323 16.3708794,6.13906226 C16.3708794,6.39689124 16.5656524,6.59166422 16.824182,6.59166422" id="Fill-112"></path>
            <path d="M16.0445296,7.648693 C16.3275809,7.648693 16.5580857,7.40978081 16.5580857,7.11481885 C16.5580857,6.82686311 16.3324853,6.60126275 16.0445296,6.60126275 C15.7502682,6.60126275 15.5106554,6.83176747 15.5106554,7.11481885 C15.5106554,7.40417584 15.7551726,7.648693 16.0445296,7.648693" id="Fill-114"></path>
            <path d="M15.8067384,8.99045465 C16.0897897,8.99045465 16.3202945,8.75084184 16.3202945,8.4565805 C16.3202945,8.16862476 16.0946941,7.9430244 15.8067384,7.9430244 C15.512477,7.9430244 15.2728642,8.17352912 15.2728642,8.4565805 C15.2728642,8.74593749 15.5173814,8.99045465 15.8067384,8.99045465" id="Fill-116"></path>
            <path d="M17.9116878,6.14894103 C18.1702174,6.14894103 18.3649904,5.95416805 18.3649904,5.69563844 C18.3649904,5.44972003 18.1576062,5.24233585 17.9116878,5.24233585 C17.6657694,5.24233585 17.4590859,5.44972003 17.4590859,5.69563844 C17.4590859,5.95416805 17.6531582,6.14894103 17.9116878,6.14894103" id="Fill-118"></path>
            <path d="M16.1799598,9.16764201 C15.9340414,9.16764201 15.7266572,9.37572682 15.7266572,9.6209446 C15.7266572,9.86686301 15.9340414,10.0742472 16.1799598,10.0742472 C16.4258782,10.0742472 16.6332624,9.86686301 16.6332624,9.6209446 C16.6332624,9.37572682 16.4258782,9.16764201 16.1799598,9.16764201" id="Fill-120"></path>
            <path d="M16.8734357,10.7235138 C17.0619031,10.7235138 17.2146388,10.5700776 17.2146388,10.3823108 C17.2146388,10.1938434 17.0619031,10.0411078 16.8734357,10.0411078 C16.6849683,10.0411078 16.5329333,10.1938434 16.5329333,10.3823108 C16.5329333,10.5700776 16.6849683,10.7235138 16.8734357,10.7235138" id="Fill-122"></path>
            <path d="M22.0076656,10.2576 C22.2311641,10.2576 22.4203321,10.446768 22.4203321,10.6702665 C22.4203321,10.8930644 22.2311641,11.0822324 22.0076656,11.0822324 C21.7729571,11.0822324 21.5956997,10.904975 21.5956997,10.6702665 C21.5956997,10.4348575 21.7729571,10.2576 22.0076656,10.2576 M27.5257663,9.53245601 C27.8536575,9.53245601 28.119894,9.79869247 28.119894,10.1265837 C28.119894,10.4586786 27.8592625,10.7200107 27.5257663,10.7200107 C27.1929708,10.7200107 26.9323393,10.4586786 26.9323393,10.1265837 C26.9323393,9.79869247 27.1985757,9.53245601 27.5257663,9.53245601 M33.0438671,10.2576 C33.2792762,10.2576 33.4565336,10.4348575 33.4565336,10.6702665 C33.4565336,10.904975 33.2792762,11.0822324 33.0438671,11.0822324 C32.8210692,11.0822324 32.6319012,10.8930644 32.6319012,10.6702665 C32.6319012,10.446768 32.8210692,10.2576 33.0438671,10.2576 M19.8623603,6.01743424 C19.8623603,6.78461559 20.3436877,7.44880547 20.7675642,8.03522629 C21.0548193,8.4324791 21.3259601,8.807312 21.4079329,9.15832374 C21.3119477,9.18985174 21.2383823,9.25430899 21.2124593,9.32997619 C21.1942431,9.3839241 21.2040519,9.43717139 21.2383823,9.48060997 L21.379908,9.66137051 C21.4149391,9.70550971 21.4303528,9.74684642 21.4247479,9.78117691 C21.4219454,9.80499807 21.4086335,9.82461549 21.3869143,9.83862793 C21.3343676,9.87365905 21.2860247,9.81340553 21.2664072,9.78468002 L21.1865363,9.68519166 C21.1529064,9.63965122 21.1059647,9.61302757 21.0548193,9.60952446 C21.0043745,9.60602135 20.955331,9.62563877 20.9174974,9.66207113 L20.5762943,10.0439103 C20.5321551,10.0880495 20.5125377,10.1391949 20.5188433,10.1910409 C20.5258495,10.2470907 20.5622819,10.2982361 20.623236,10.3339679 L20.7654623,10.41524 C20.9090899,10.4874041 20.9146949,10.5112253 20.8950774,10.552562 C20.8649507,10.5974018 20.786481,10.5938987 20.586103,10.5392502 C20.508334,10.5175309 20.4403736,10.5273396 20.3948332,10.5679757 C20.3520952,10.6058093 20.3345797,10.6653622 20.3457896,10.7333225 L20.3864257,11.1333778 C20.3864257,11.1936313 20.4109475,11.2454774 20.4550867,11.2756041 C20.4922197,11.3015272 20.5594794,11.3232465 20.6694771,11.2826104 C20.7241256,11.2615917 20.8908737,11.1978351 20.9350129,11.2181531 C20.9399173,11.220255 20.9448216,11.2244587 20.9518278,11.2433755 C20.9630378,11.2784066 20.9224017,11.3099346 20.8011941,11.3905062 C20.7577555,11.4234354 20.7339343,11.4619697 20.7311318,11.5047076 C20.7269281,11.5579549 20.7563542,11.6168072 20.8173084,11.6770607 L21.0190876,11.8998586 C21.0744367,11.9552077 21.1374927,11.9797295 21.2047525,11.9720227 C21.270611,11.9650164 21.3378707,11.9264822 21.4051304,11.8592225 C21.4562759,11.8087777 21.5025169,11.7576322 21.5480574,11.7057862 C21.5921966,11.6574433 21.637737,11.6069985 21.6867806,11.5572543 C21.7021943,11.5418406 21.7260154,11.5257263 21.7498366,11.52993 C21.780664,11.5369362 21.812192,11.5789736 21.838115,11.6469339 C21.9319984,11.9012598 21.927094,12.114249 21.8227013,12.2634815 C21.7099011,12.4267265 21.4814983,12.5122024 21.1620145,12.5122024 C20.8768613,12.5122024 20.6750821,12.3846892 20.6078223,12.266284 C20.5741925,12.2060305 20.5727912,12.1471782 20.6043192,12.0946315 L20.6071217,12.0897272 C20.6841902,11.9552077 20.7577555,11.8269939 20.5552757,11.6917738 L20.3541971,11.5516493 C20.2091683,11.4472566 20.0865594,11.4563647 19.9891729,11.578273 C19.8623603,11.7471229 19.7965018,11.7555304 19.7068221,11.7106906 C19.6171425,11.6595451 19.6248493,11.5446431 19.634658,11.3849012 C19.6381611,11.3302527 19.6416643,11.2735023 19.6416643,11.2132488 C19.6416643,11.0857355 19.6108369,11.0016609 19.5463796,10.956821 C19.4433882,10.8853576 19.2703345,10.9322993 19.0965802,10.9967565 C18.9291314,10.804786 18.7112379,10.6093124 18.4800326,10.4012276 C17.8354601,9.82111238 17.1040105,9.16322809 17.1040105,8.29305527 C17.1040105,7.6638965 17.4620285,7.30377667 17.7618948,7.11390804 C18.0967922,6.90091888 18.4527083,6.83365915 18.5234712,6.83365915 L18.5725147,6.83365915 L18.3406088,6.34672669 L18.3181888,6.34952918 C18.0281312,6.38946464 17.5839367,6.54360154 17.2077026,6.85537843 C16.9029319,7.10760244 16.539309,7.55459943 16.539309,8.2531198 C16.539309,9.30895752 17.2791661,9.97875238 17.9328466,10.5693769 L17.9790877,10.6121149 C18.1815675,10.7956779 18.4534089,11.0493032 18.6348701,11.2433755 L18.3427106,11.2433755 C17.8039321,11.2433755 17.5916436,11.6588445 17.5902423,11.6630482 L17.5678224,11.7071874 L17.6175666,11.7071874 C18.2978708,11.7071874 19.1498274,11.9965444 19.840641,12.4624582 C20.5840012,12.9634031 21.0106801,13.5722439 21.0106801,14.1334423 L21.0106801,14.1712759 L21.0471125,14.163569 C21.8822542,13.9968209 24.3106109,13.6815409 27.5257663,13.6815409 C30.7416224,13.6815409 33.1699791,13.9968209 34.0051208,14.163569 L34.0415532,14.1712759 L34.0415532,14.1334423 C34.0415532,13.5722439 34.4682321,12.9634031 35.2115923,12.4624582 C35.9024058,11.9965444 36.7543625,11.7071874 37.4346667,11.7071874 L37.4844109,11.7071874 L37.4619909,11.6630482 C37.4598891,11.6588445 37.2476005,11.2433755 36.7095227,11.2433755 L36.4166626,11.2433755 C36.5988243,11.0486025 36.8706658,10.7956779 37.072445,10.6121149 L37.1193867,10.5693769 C37.7723666,9.97875238 38.5129243,9.30895752 38.5129243,8.2531198 C38.5129243,7.55459943 38.1493014,7.10760244 37.8445307,6.85537843 C37.4682965,6.54360154 37.024102,6.38946464 36.7340444,6.34952918 L36.7116245,6.34672669 L36.4797186,6.83365915 L36.5287621,6.83365915 C36.599525,6.83365915 36.9547404,6.90091888 37.2896379,7.11390804 C37.5902048,7.30377667 37.9475222,7.6638965 37.9475222,8.29305527 C37.9475222,9.16322809 37.2167732,9.82111238 36.5707995,10.4019282 C36.3402947,10.6093124 36.1224012,10.804786 35.9549525,10.9967565 C35.7818988,10.9322993 35.6088451,10.8853576 35.5058536,10.956821 C35.4413964,11.0016609 35.4098684,11.0857355 35.4098684,11.2132488 C35.4098684,11.2735023 35.4140721,11.3302527 35.4175752,11.3849012 C35.427384,11.5383375 35.4350908,11.6595451 35.3468124,11.7099899 C35.2557315,11.756231 35.189873,11.7471229 35.0623598,11.5775723 C34.9656739,11.4563647 34.843065,11.4472566 34.6980362,11.5509487 L34.4976582,11.6917738 C34.2944778,11.8269939 34.3673425,11.9552077 34.444411,12.0897272 L34.4479141,12.0953322 C34.4787414,12.1471782 34.4780408,12.2060305 34.4437103,12.266284 C34.3771512,12.3846892 34.1746714,12.5122024 33.8902188,12.5122024 C33.570735,12.5122024 33.3423322,12.4267265 33.229532,12.2634815 C33.1251393,12.114249 33.1202349,11.9012598 33.2141183,11.6469339 C33.2400413,11.5789736 33.2708687,11.5369362 33.3023967,11.52993 C33.3262179,11.5250257 33.3493384,11.5418406 33.3647521,11.5572543 C33.4144963,11.6069985 33.4600367,11.6574433 33.5048765,11.7071874 C33.5497163,11.7576322 33.5959574,11.8087777 33.6471028,11.8592225 C33.713662,11.9271828 33.7816223,11.9650164 33.8474808,11.9720227 C33.9147405,11.9797295 33.9770959,11.9552077 34.0338463,11.8991579 L34.2342243,11.6784619 C34.295879,11.6168072 34.3246045,11.5579549 34.3211014,11.5047076 C34.3175983,11.4619697 34.2944778,11.4227348 34.249638,11.389105 C34.1298316,11.3099346 34.0891955,11.2784066 34.1004054,11.2433755 C34.106711,11.2244587 34.112316,11.220255 34.1172204,11.2181531 C34.1564552,11.1992363 34.2874716,11.246178 34.3827562,11.2826104 C34.4927539,11.3232465 34.5600136,11.3015272 34.5971466,11.2756041 C34.6405852,11.2454774 34.6658076,11.194332 34.6658076,11.1361803 L34.705743,10.7354244 C34.7176536,10.6653622 34.7001381,10.6058093 34.6574001,10.5679757 C34.6118597,10.5280402 34.5445999,10.5175309 34.4661302,10.5392502 C34.2685548,10.5931981 34.1872826,10.5967012 34.1592577,10.5553645 C34.1375384,10.5119259 34.1431434,10.4874041 34.2881722,10.4145394 L34.4296979,10.3332672 C34.4892508,10.2982361 34.5263838,10.2470907 34.53339,10.1910409 C34.5396956,10.1391949 34.5200782,10.0880495 34.4766396,10.0453115 L34.1333347,9.66137051 C34.0969023,9.62563877 34.0478588,9.60602135 33.997414,9.60952446 C33.9462685,9.61302757 33.8993268,9.63965122 33.8663976,9.68449104 L33.7844248,9.78678189 C33.765508,9.81410616 33.7178657,9.87365905 33.665319,9.83862793 C33.6435997,9.82461549 33.6302879,9.80499807 33.6267848,9.78117691 C33.6218804,9.74684642 33.6372941,9.70550971 33.6723252,9.66137051 L33.8131503,9.48060997 C33.8481814,9.43717139 33.8572895,9.3839241 33.8390733,9.32997619 C33.8138509,9.25430899 33.7402856,9.18985174 33.6443004,9.15832374 C33.7262732,8.807312 33.997414,8.4324791 34.2846691,8.03522629 C34.7085455,7.44880547 35.1891724,6.78461559 35.1891724,6.01743424 C35.1891724,5.379868 34.800327,4.69746193 33.7087576,4.69746193 C33.1657754,4.69746193 32.5765521,4.87051563 32.0069462,5.0365631 C31.4576583,5.19630497 30.8901543,5.36305306 30.3857063,5.36305306 C29.7621525,5.36305306 29.3578935,5.27547528 28.1072828,4.44103419 L28.0799585,4.42351864 L27.9909795,4.57275118 L28.0077944,4.58886549 C28.1997649,4.7815366 29.1112745,5.81425379 28.2249873,7.33110094 L28.214478,7.34791587 L28.2852408,7.45300921 L28.3118645,7.43058929 C28.9108965,6.90372137 29.2885319,6.15265433 28.8254206,5.26146284 C29.3242636,5.69024365 29.8735515,5.84718303 30.4690804,5.84718303 C31.1010416,5.84718303 31.6804562,5.66291938 32.2654758,5.50107564 C32.7440008,5.36795742 33.1966027,5.24254604 33.5476145,5.24254604 C34.2720579,5.24254604 34.6244709,5.52910053 34.6244709,6.11832384 C34.6244709,6.6683123 34.232823,7.24982876 33.8537864,7.81242841 C33.5623276,8.24471234 33.286983,8.6531751 33.1832909,9.04272107 C33.0802994,9.02380427 32.9822123,9.04412231 32.9247613,9.09596836 C32.8820234,9.13380196 32.8645078,9.18564801 32.8729153,9.24450027 L32.9135514,9.52755166 C32.9205576,9.56258277 32.9163538,9.59060766 32.9016408,9.60812322 C32.8897302,9.62353691 32.8680109,9.63194437 32.8427885,9.63194437 C32.8189674,9.63194437 32.7748282,9.63194437 32.7517076,9.49602366 L32.7320902,9.39513406 C32.7208802,9.33838365 32.687951,9.29494508 32.6396081,9.27182454 C32.5912651,9.24800339 32.535916,9.24870401 32.4882737,9.27252516 L31.983125,9.49462241 C31.9284765,9.52194668 31.8878404,9.56818775 31.8745286,9.61723131 C31.8647199,9.65436428 31.8710255,9.6893954 31.8934454,9.72302526 L32.0559897,9.90588767 C32.0819128,9.93251131 32.1008296,9.95773371 32.1085364,9.98015363 C32.1183451,10.0060766 32.1141414,10.0263947 32.0959252,10.0439103 C32.0756072,10.0649289 32.0363723,10.0621264 31.9123622,9.979453 L31.8114726,9.91849887 C31.7575247,9.88627025 31.6979718,9.87716216 31.6440239,9.89257585 C31.5935791,9.90728891 31.5508411,9.94372127 31.5263193,9.9920642 L31.3644756,10.3360697 C31.3427563,10.389317 31.341355,10.4348575 31.3595712,10.4733917 C31.3798893,10.5182315 31.4275316,10.552562 31.5038994,10.5777844 L31.6258077,10.6191211 C31.7028761,10.6422416 31.8086701,10.6772728 31.8275869,10.7130045 C31.8303894,10.7186095 31.8317906,10.7256157 31.8268863,10.7403288 C31.8156763,10.7746592 31.8037657,10.778863 31.6853606,10.7956779 L31.6496288,10.8005823 C31.5858722,10.8110916 31.5438349,10.8335115 31.5200137,10.8685426 C31.4954919,10.9042744 31.489887,10.9505154 31.5038994,11.019877 L31.6040884,11.4199323 C31.6152983,11.4871921 31.6496288,11.54114 31.7000736,11.5712667 C31.7526203,11.6027947 31.8177782,11.6076991 31.8843373,11.5859798 C31.9747176,11.5593562 32.0882184,11.5180194 32.1905092,11.4808865 C32.2493615,11.4591672 32.3047106,11.4388491 32.3509517,11.4234354 C32.4091033,11.4003149 32.4553444,11.3961112 32.4756625,11.4115249 C32.4952799,11.4269386 32.4945793,11.4633709 32.4903755,11.4920964 C32.4077021,12.1107459 32.1085364,12.4113128 31.5739616,12.4113128 C31.0127632,12.4113128 30.7878635,11.8977567 30.7255081,11.7127924 C30.8516201,11.6469339 30.9805346,11.492797 30.9805346,11.2938203 C30.9805346,11.0373926 30.7633417,10.8209003 30.506914,10.8209003 C30.2497856,10.8209003 30.0332933,11.0373926 30.0332933,11.2938203 C30.0332933,11.472479 30.1257755,11.6385265 30.2666005,11.7120918 C30.1355842,12.0448874 29.8546347,12.4323315 29.2584051,12.4323315 C28.9746531,12.4323315 28.6845955,12.3083213 28.461097,12.0925297 C28.2446047,11.8837443 28.1205946,11.6224122 28.1205946,11.3750925 C28.1205946,11.21465 28.1675363,11.0976461 28.246006,11.062615 C28.2999539,11.0380932 28.366513,11.0577106 28.4309703,11.1151617 L28.8359299,11.498402 C28.9683475,11.609801 29.0867527,11.6091003 29.2002535,11.4970008 L29.4833049,11.1922301 C29.5288453,11.1361803 29.5470615,11.0766274 29.5372528,11.0205777 C29.5274441,10.9666297 29.492413,10.9196881 29.4349619,10.8853576 C29.3887209,10.8573327 29.3403779,10.8258047 29.334773,10.799181 C29.3326711,10.793576 29.3326711,10.784468 29.343881,10.767653 C29.3670016,10.7326219 29.4910117,10.7893723 29.6479511,10.8601352 L29.6871859,10.879052 C29.7495413,10.9098793 29.8153998,10.9098793 29.8721502,10.8804532 C29.9373081,10.8461227 29.9814473,10.7781624 29.9933579,10.6940877 L30.0739294,10.0698333 C30.0865406,9.98225549 30.0627195,9.89888145 30.0108734,9.8470354 C29.9660336,9.8028962 29.9064807,9.7839794 29.8385203,9.79378811 C29.7782668,9.80079433 29.7180133,9.81340553 29.664766,9.82531611 C29.5855957,9.84283167 29.4959161,9.86244909 29.4882092,9.8344242 C29.4805024,9.80990242 29.4910117,9.77837442 29.6318368,9.73143273 C29.6955934,9.70621033 29.7418345,9.66066988 29.7635538,9.60462011 C29.7845724,9.54997157 29.7789675,9.48831681 29.7488407,9.42736268 L29.5673795,9.06514098 C29.5344503,8.99928249 29.4791011,8.9523408 29.4104402,8.93062151 C29.3431804,8.91100409 29.2696151,8.91801031 29.203056,8.95164018 L28.6201383,9.27322579 C28.4940263,9.33628179 28.455492,9.34048552 28.4141553,9.29914881 C28.3875317,9.27252516 28.372118,9.23048783 28.4575939,9.11698703 L28.819115,8.61464088 C28.8632542,8.55929172 28.8814704,8.49203199 28.870961,8.4261735 C28.8597511,8.35471003 28.8177137,8.29165403 28.7518552,8.24821545 L28.4695045,8.04643624 C28.3412906,7.96096033 28.2193823,7.97707464 28.1261996,8.09267731 C28.1093847,8.11369598 28.0946716,8.13401402 28.0799585,8.15363145 C28.0274119,8.22439429 28.0042913,8.2531198 27.9804702,8.24471234 C27.9671583,8.23980798 27.9643559,8.234203 27.9629546,8.23069989 C27.9545471,8.21178309 27.9755658,8.16203891 28.0000876,8.10458789 C28.0246094,8.04433438 28.0561374,7.97006842 28.0792579,7.87828691 C28.0995759,7.80822468 28.0890666,7.74026432 28.0498318,7.68841828 C28.0063932,7.63096725 27.9328278,7.59803801 27.8480526,7.59803801 L27.2041807,7.59803801 C27.1187048,7.59803801 27.0458401,7.63096725 27.0024015,7.68841828 C26.9631667,7.74026432 26.9526573,7.80822468 26.9722748,7.87828691 C26.9960959,7.97006842 27.0269233,8.04433438 27.0521457,8.10458789 C27.0766675,8.16203891 27.0976861,8.21178309 27.0892787,8.23069989 C27.0878774,8.234203 27.0843743,8.23910736 27.0731644,8.24401171 C27.0486426,8.25241918 27.0241208,8.22299305 26.9701729,8.15082896 C26.9561604,8.13261278 26.9414474,8.11299536 26.9260337,8.09267731 C26.8328509,7.97707464 26.7109427,7.96096033 26.5820282,8.04713687 L26.300378,8.24821545 C26.2345195,8.29165403 26.1917816,8.35471003 26.1812722,8.4261735 C26.1707629,8.49203199 26.1889791,8.55929172 26.2324177,8.61323964 L26.59534,9.11768765 C26.6801153,9.23048783 26.6647016,9.27252516 26.6380779,9.29914881 C26.5967412,9.34048552 26.558207,9.33628179 26.4327956,9.27392641 L25.8477761,8.95093956 C25.7819176,8.91801031 25.7090529,8.91100409 25.6417931,8.93062151 C25.5731321,8.9523408 25.517783,8.99928249 25.4848537,9.06514098 L25.3033926,9.42736268 C25.2725652,9.48831681 25.2676608,9.54997157 25.2886795,9.60462011 C25.3096982,9.66066988 25.3566399,9.70621033 25.4217977,9.73213335 C25.5612216,9.77837442 25.5717309,9.80990242 25.5626228,9.83652607 C25.5563172,9.86244909 25.4631345,9.84143042 25.3874673,9.82531611 C25.33422,9.81340553 25.2739664,9.80079433 25.2144136,9.79378811 C25.1457526,9.7839794 25.0861997,9.8028962 25.0413599,9.8470354 C24.9888132,9.89888145 24.9656927,9.98225549 24.9783039,10.0691327 L25.0588754,10.6940877 C25.070786,10.7781624 25.1149252,10.8461227 25.1800831,10.8804532 C25.2368335,10.91058 25.302692,10.9098793 25.3636461,10.879052 L25.4042822,10.8601352 C25.5612216,10.7893723 25.6845311,10.7326219 25.7083522,10.767653 C25.7195622,10.784468 25.7188616,10.793576 25.7174603,10.799181 C25.7118553,10.8258047 25.6635124,10.8573327 25.6172713,10.8853576 C25.5598203,10.9196881 25.5247892,10.9666297 25.5149805,11.0205777 C25.5051718,11.0766274 25.523388,11.1361803 25.5703297,11.194332 L25.8526804,11.4977014 C25.96478,11.6091003 26.0838858,11.609801 26.2177046,11.4977014 L26.6198618,11.1158623 C26.6857203,11.0577106 26.7515788,11.0380932 26.8062273,11.062615 C26.884697,11.0976461 26.9316387,11.21465 26.9316387,11.3750925 C26.9316387,11.6224122 26.8076285,11.8837443 26.5911363,12.0925297 C26.3676378,12.3083213 26.0775802,12.4323315 25.7938281,12.4323315 C25.1975986,12.4323315 24.9166491,12.0448874 24.7856327,11.7120918 C24.9264578,11.6385265 25.01894,11.472479 25.01894,11.2938203 C25.01894,11.0373926 24.8024477,10.8209003 24.5453193,10.8209003 C24.288191,10.8209003 24.0716987,11.0373926 24.0716987,11.2938203 C24.0716987,11.492797 24.2006132,11.6469339 24.3267252,11.7127924 C24.2643698,11.8977567 24.0387694,12.4113128 23.4782716,12.4113128 C22.9436969,12.4113128 22.6445312,12.1107459 22.5618578,11.4913958 C22.557654,11.4633709 22.5569534,11.4269386 22.5765708,11.4115249 C22.5961882,11.3961112 22.6438306,11.4003149 22.7033834,11.4241361 C22.7475226,11.4388491 22.8028718,11.4591672 22.8638259,11.4815871 C22.9640149,11.5180194 23.0775157,11.5593562 23.1664947,11.5852792 C23.2337545,11.6076991 23.299613,11.6027947 23.351459,11.5712667 C23.4026044,11.5404394 23.4369349,11.4871921 23.4474443,11.4227348 L23.5483339,11.0184758 C23.5616457,10.9498148 23.5567413,10.9042744 23.5322196,10.8685426 C23.5083984,10.8335115 23.4656604,10.8110916 23.4019038,10.8005823 L23.3661721,10.7956779 C23.2484676,10.778863 23.236557,10.7746592 23.225347,10.7403288 C23.219742,10.7256157 23.2218439,10.7186095 23.2246464,10.7130045 C23.2435632,10.6772728 23.3493572,10.6422416 23.4271262,10.6184205 L23.5483339,10.5777844 C23.6247017,10.552562 23.6716434,10.5182315 23.6926621,10.4733917 C23.7108782,10.4348575 23.7087764,10.389317 23.6870571,10.3339679 L23.525914,9.99136358 C23.5013922,9.94372127 23.4586542,9.90728891 23.4082094,9.89257585 C23.3542615,9.87716216 23.2947086,9.88627025 23.2407607,9.91849887 L23.1384699,9.98015363 C23.015861,10.0621264 22.9766261,10.0649289 22.9563081,10.0439103 C22.9233788,10.0116816 22.9373913,9.96473994 22.9976448,9.90448642 L23.1608898,9.72022278 C23.1812078,9.6893954 23.1875134,9.65436428 23.1770041,9.61723131 C23.1643929,9.56818775 23.1237568,9.52194668 23.067707,9.49392179 L22.5653609,9.27322579 C22.5163173,9.24870401 22.4602675,9.24800339 22.4126252,9.27182454 C22.3642823,9.29494508 22.331353,9.33838365 22.3201431,9.39513406 L22.299825,9.49672428 C22.2774051,9.63194437 22.2325653,9.63194437 22.2094448,9.63194437 C22.1842224,9.63194437 22.1625031,9.62353691 22.1498919,9.60812322 C22.1358794,9.59060766 22.1316757,9.56258277 22.1386819,9.52615041 L22.179318,9.24450027 C22.1877255,9.18564801 22.1695093,9.13380196 22.127472,9.09596836 C22.0700209,9.04412231 21.9719338,9.02380427 21.8689424,9.04272107 C21.7652503,8.6531751 21.4899057,8.24471234 21.1984469,7.81242841 C20.8194102,7.24982876 20.4270618,6.6683123 20.4270618,6.11832384 C20.4270618,5.52910053 20.7794748,5.24254604 21.5046188,5.24254604 C21.8556305,5.24254604 22.3082325,5.36795742 22.7867575,5.50107564 C23.3710764,5.66291938 24.0338651,5.84718303 24.6658263,5.84718303 C25.2620559,5.84718303 25.7090529,5.64330196 26.0691727,5.43591778 C25.8982209,6.17997859 26.1413368,6.90372137 26.7403688,7.43058929 L26.7669924,7.45300921 L26.8370547,7.34791587 L26.827246,7.33110094 C25.9409588,5.81425379 26.8524684,4.7815366 27.0437382,4.58886549 L27.0612538,4.57275118 L26.9715741,4.42351864 L26.9449505,4.44103419 C25.6936392,5.27547528 25.2900808,5.36305306 24.6658263,5.36305306 C24.162079,5.36305306 23.5938743,5.19630497 23.0445865,5.0365631 C22.4749806,4.87051563 21.8864579,4.69746193 21.3434757,4.69746193 C20.2512056,4.69746193 19.8623603,5.379868 19.8623603,6.01743424" id="Fill-124"></path>
            <path d="M20.8869502,8.84745765 C20.8869502,8.65828965 20.7342146,8.50625462 20.5457472,8.50625462 C20.3579804,8.50625462 20.2052448,8.65828965 20.2052448,8.84745765 C20.2052448,9.03592503 20.3579804,9.18796006 20.5457472,9.18796006 C20.7342146,9.18796006 20.8869502,9.03592503 20.8869502,8.84745765" id="Fill-126"></path>
            <path d="M19.9619187,7.70074923 C19.7734513,7.70074923 19.6214163,7.85348488 19.6214163,8.04125164 C19.6214163,8.22971902 19.7734513,8.38315529 19.9619187,8.38315529 C20.1503861,8.38315529 20.3031217,8.22971902 20.3031217,8.04125164 C20.3031217,7.85348488 20.1503861,7.70074923 19.9619187,7.70074923" id="Fill-128"></path>
            <path d="M17.998565,10.9616553 C17.998565,10.7731879 17.8458293,10.6211529 17.6573619,10.6211529 C17.4695952,10.6211529 17.3168595,10.7731879 17.3168595,10.9616553 C17.3168595,11.1508233 17.4695952,11.3028584 17.6573619,11.3028584 C17.8458293,11.3028584 17.998565,11.1508233 17.998565,10.9616553" id="Fill-130"></path>
            <path d="M38.2013576,10.041388 C38.0128902,10.041388 37.8601546,10.1941237 37.8601546,10.3818904 C37.8601546,10.5703578 38.0128902,10.7237941 38.2013576,10.7237941 C38.389825,10.7237941 38.54186,10.5703578 38.54186,10.3818904 C38.54186,10.1941237 38.389825,10.041388 38.2013576,10.041388" id="Fill-132"></path>
            <path d="M37.4169409,10.6208727 C37.2284735,10.6208727 37.0764385,10.7736083 37.0764385,10.9613751 C37.0764385,11.1505431 37.2284735,11.3032787 37.4169409,11.3032787 C37.6054083,11.3032787 37.758144,11.1505431 37.758144,10.9613751 C37.758144,10.7736083 37.6054083,10.6208727 37.4169409,10.6208727" id="Fill-134"></path>
            <path d="M38.7370534,8.45679069 C38.7370534,8.74614767 38.9815705,8.99066484 39.2709275,8.99066484 C39.5546795,8.99066484 39.7851842,8.75105203 39.7851842,8.45679069 C39.7851842,8.16883495 39.5588832,7.94323459 39.2709275,7.94323459 C38.9766662,7.94323459 38.7370534,8.1737393 38.7370534,8.45679069" id="Fill-136"></path>
            <path d="M38.5321914,7.11502904 C38.5321914,7.40438602 38.7767086,7.64890318 39.0660656,7.64890318 C39.3491169,7.64890318 39.5796217,7.409991 39.5796217,7.11502904 C39.5796217,6.8270733 39.3540213,6.60147293 39.0660656,6.60147293 C38.7718042,6.60147293 38.5321914,6.83197765 38.5321914,7.11502904" id="Fill-138"></path>
            <path d="M34.4540095,4.4671674 C34.7370609,4.4671674 34.9675656,4.2275546 34.9675656,3.93329326 C34.9675656,3.64533752 34.7419652,3.41973715 34.4540095,3.41973715 C34.1597481,3.41973715 33.9201353,3.65024187 33.9201353,3.93329326 C33.9201353,4.22265024 34.1646525,4.4671674 34.4540095,4.4671674" id="Fill-140"></path>
            <path d="M20.6180514,4.4671674 C20.9011028,4.4671674 21.1316075,4.2275546 21.1316075,3.93329326 C21.1316075,3.64533752 20.9060072,3.41973715 20.6180514,3.41973715 C20.3237901,3.41973715 20.0841773,3.65024187 20.0841773,3.93329326 C20.0841773,4.22265024 20.3286944,4.4671674 20.6180514,4.4671674" id="Fill-142"></path>
            <path d="M35.5818712,5.1821524 C35.8649225,5.1821524 36.0954273,4.94253959 36.0954273,4.64827825 C36.0954273,4.36032251 35.8698269,4.13472215 35.5818712,4.13472215 C35.2876098,4.13472215 35.047997,4.36522687 35.047997,4.64827825 C35.047997,4.93693462 35.2925142,5.1821524 35.5818712,5.1821524" id="Fill-144"></path>
            <path d="M19.4901197,5.1821524 C19.7738717,5.1821524 20.0036758,4.94253959 20.0036758,4.64827825 C20.0036758,4.36032251 19.778776,4.13472215 19.4901197,4.13472215 C19.1958583,4.13472215 18.9562455,4.36522687 18.9562455,4.64827825 C18.9562455,4.93693462 19.2007627,5.1821524 19.4901197,5.1821524" id="Fill-146"></path>
            <path d="M32.1177846,4.56777676 C32.3847217,4.56777676 32.5710872,4.38071062 32.5710872,4.11447417 C32.5710872,3.85594456 32.3763142,3.66117158 32.1177846,3.66117158 C31.8718662,3.66117158 31.664482,3.86855576 31.664482,4.11447417 C31.664482,4.37300378 31.859255,4.56777676 32.1177846,4.56777676" id="Fill-148"></path>
            <path d="M22.9340984,4.56777676 C23.2010354,4.56777676 23.3874009,4.38071062 23.3874009,4.11447417 C23.3874009,3.85594456 23.192628,3.66117158 22.9340984,3.66117158 C22.6881799,3.66117158 22.4807958,3.86855576 22.4807958,4.11447417 C22.4807958,4.37300378 22.6755687,4.56777676 22.9340984,4.56777676" id="Fill-150"></path>
            <path d="M21.8568216,4.41658248 C22.1237587,4.41658248 22.3101242,4.23021696 22.3101242,3.96398051 C22.3101242,3.70475028 22.1153512,3.5099773 21.8568216,3.5099773 C21.6109032,3.5099773 21.403519,3.7180621 21.403519,3.96398051 C21.403519,4.2218095 21.598292,4.41658248 21.8568216,4.41658248" id="Fill-152"></path>
            <path d="M33.1954117,4.41658248 C33.4623488,4.41658248 33.6487143,4.23021696 33.6487143,3.96398051 C33.6487143,3.70475028 33.4539413,3.5099773 33.1954117,3.5099773 C32.9494933,3.5099773 32.7421091,3.7180621 32.7421091,3.96398051 C32.7421091,4.2218095 32.9368821,4.41658248 33.1954117,4.41658248" id="Fill-154"></path>
            <path d="M19.0874721,6.47122726 C19.3705235,6.47122726 19.6010282,6.23161445 19.6010282,5.93665249 C19.6010282,5.64869675 19.3754278,5.42309639 19.0874721,5.42309639 C18.7932107,5.42309639 18.5535979,5.65360111 18.5535979,5.93665249 C18.5535979,6.22600948 18.7981151,6.47122726 19.0874721,6.47122726" id="Fill-156"></path>
            <path d="M35.4508548,5.93686268 C35.4508548,6.22621966 35.695372,6.47143745 35.9847289,6.47143745 C36.2677803,6.47143745 36.498285,6.23182464 36.498285,5.93686268 C36.498285,5.64890694 36.2726847,5.42330658 35.9847289,5.42330658 C35.6904676,5.42330658 35.4508548,5.65381129 35.4508548,5.93686268" id="Fill-158"></path>
            <path d="M28.0498318,5.92999658 C28.0498318,5.64204084 27.8242314,5.41644048 27.5362757,5.41644048 C27.2420143,5.41644048 27.0024015,5.64694519 27.0024015,5.92999658 C27.0024015,6.21935356 27.2469187,6.46387073 27.5362757,6.46387073 C27.819327,6.46387073 28.0498318,6.22425792 28.0498318,5.92999658" id="Fill-160"></path>
            <path d="M27.8668292,4.8058482 C27.8668292,4.61738081 27.7140936,4.46464516 27.5263268,4.46464516 C27.3378594,4.46464516 27.1851238,4.61738081 27.1851238,4.8058482 C27.1851238,4.99431558 27.3378594,5.1463506 27.5263268,5.1463506 C27.7140936,5.1463506 27.8668292,4.99431558 27.8668292,4.8058482" id="Fill-162"></path>
            <path d="M27.1850537,7.0746732 C27.1850537,7.26314058 27.3377894,7.4151756 27.5262568,7.4151756 C27.7140235,7.4151756 27.8667592,7.26314058 27.8667592,7.0746732 C27.8667592,6.88550519 27.7140235,6.73347016 27.5262568,6.73347016 C27.3377894,6.73347016 27.1850537,6.88550519 27.1850537,7.0746732" id="Fill-164"></path>
            <path d="M26.1926223,2.39542744 L26.6115944,2.39542744 L26.6115944,2.02409765 L26.9373838,2.02409765 C26.9976373,2.19224699 27.127953,2.32746708 27.2932999,2.3940262 L27.2932999,2.72121678 C26.6732492,2.82981323 26.1926223,3.35738178 26.1926223,4.02367353 C26.634715,3.91507708 27.0803107,3.86112917 27.5259065,3.86112917 C27.9722028,3.86112917 28.4177986,3.91507708 28.8598912,4.02367353 C28.8598912,3.35738178 28.3792643,2.82981323 27.758513,2.72121678 L27.758513,2.3940262 C27.9238599,2.32746708 28.0541756,2.19224699 28.1144291,2.02409765 L28.4409191,2.02409765 L28.4409191,2.39542744 L28.8598912,2.39542744 L28.8598912,2.02409765 L29.2466347,2.02409765 L29.2466347,1.60512555 L28.8598912,1.60512555 L28.8598912,1.21698083 L28.4409191,1.21698083 L28.4409191,1.60512555 L28.1151298,1.60512555 C28.1116266,1.5939156 28.1067223,1.58410689 28.1025186,1.57359755 C28.0338576,1.40965195 27.8972362,1.28073746 27.7276857,1.22328643 L27.7276857,0.858262244 L28.1487596,0.858262244 L28.1487596,0.473620634 L27.7276857,0.473620634 L27.7276857,-1.77571345e-14 L27.3248279,-1.77571345e-14 L27.3248279,0.473620634 L26.9030533,0.473620634 L26.9030533,0.858262244 L27.3248279,0.858262244 L27.3248279,1.22328643 C27.1552773,1.28073746 27.018656,1.40965195 26.949995,1.57359755 C26.9450906,1.58410689 26.9408869,1.5939156 26.9366831,1.60512555 L26.6115944,1.60512555 L26.6115944,1.21698083 L26.1926223,1.21698083 L26.1926223,1.60512555 L25.8051782,1.60512555 L25.8051782,2.02409765 L26.1926223,2.02409765 L26.1926223,2.39542744 Z" id="Fill-166"></path>
        </g>
        <path d="M63.274962,38.9076663 C62.8770086,40.9051403 62.2786772,42.8696851 61.4953815,44.7487539 C60.7260983,46.5934923 59.7718508,48.374474 58.658562,50.0412543 C57.5557826,51.6919203 56.2869558,53.2459005 54.8885138,54.6583549 C53.4900718,56.0722106 51.9494035,57.3571518 50.3099474,58.4774467 C48.6550777,59.6075504 46.8846053,60.5807147 45.0475738,61.3689147 C43.1769124,62.1718278 41.2186732,62.7911779 39.2261036,63.2094493 C37.1816879,63.6389308 35.0756174,63.8624293 32.9674451,63.8740308 C30.8592728,63.8841486 28.7518011,63.68307 26.702481,63.2746072 C24.7057077,62.8773544 22.7411629,62.2783224 20.862094,61.4950267 C19.0173557,60.7271447 17.236374,59.7721966 15.5695936,58.6582073 C13.9189276,57.5561285 12.3649475,56.2880022 10.9510918,54.8895602 C9.53793677,53.489717 8.25369621,51.9497493 7.13340125,50.3102933 C6.00259695,48.6554235 5.02943266,46.8849511 4.24123264,45.0486202 C3.43902017,43.1779589 2.81896949,41.2190191 2.40069801,39.2264494 C1.97121658,37.1820337 1.74771808,35.0759633 1.7367647,32.967791 C1.7259988,30.8596186 1.92707738,28.7514463 2.33554014,26.7021263 C2.73279295,24.7053529 3.33182497,22.7408081 4.11512063,20.8617393 C4.88370323,19.0163003 5.83865135,17.2360192 6.95123946,15.5692389 C8.05471949,13.9185729 9.32284575,12.3645927 10.7212877,10.9514377 C12.1204304,9.53828262 13.660398,8.25334143 15.2998541,7.13304647 C16.9547238,6.00224217 18.7258968,5.0297785 20.5622277,4.24157848 C22.4328891,3.4386654 24.3911283,2.81931534 26.3836979,2.40104386 C28.4288142,1.9708618 30.5341841,1.74806393 32.6423564,1.73641135 C34.7512293,1.72564402 36.858701,1.92742322 38.9073205,2.33518537 C40.9040939,2.7331388 42.8693392,3.33217082 44.7484081,4.11476586 C46.5931464,4.88334846 48.3734276,5.83829657 50.0402079,6.95158531 C51.6915745,8.05436472 53.2455546,9.32249097 54.6587097,10.7216336 C56.0718647,12.1200756 57.3568059,13.6607439 58.4764003,15.3001999 C59.6072046,16.9550697 60.5803688,18.7248414 61.3685689,20.5618729 C62.171482,22.4325343 62.790832,24.3914741 63.2091035,26.3840438 C63.6392855,28.4284595 63.8620834,30.5345299 63.8737374,32.6427022 C63.8845033,34.7508746 63.6834247,36.8583463 63.274962,38.9076663 M64.8048516,32.6377979 C64.7932104,30.4665696 64.5627057,28.2981437 64.120613,26.1927739 C63.6890297,24.1399507 63.0507629,22.1221587 62.2240286,20.1947469 C61.4120074,18.3030668 60.4101176,16.4793472 59.2456835,14.7747332 C58.0917586,13.0869343 56.7689839,11.5000249 55.3130908,10.0595456 C53.8578985,8.61976686 52.2576773,7.31310639 50.5572671,6.17739773 C48.8407426,5.03047913 47.0065136,4.04750612 45.106426,3.25580299 C43.1706068,2.44868617 41.1465091,1.8321386 39.0894822,1.42227459 C36.9792081,1.00190125 34.8086804,0.795217684 32.637452,0.805345581 C30.4669243,0.817637596 28.2984985,1.04744169 26.192428,1.49023495 C24.1403055,1.92111762 22.1225135,2.55938449 20.1951017,3.38611873 C18.3034216,4.19813991 16.4797019,5.20073033 14.775088,6.36516449 C13.0865884,7.5183887 11.5003797,8.84116349 10.0599003,10.2963559 C8.61942102,11.7522489 7.31346116,13.3517695 6.17775251,15.0521797 C5.0308339,16.7687041 4.0478609,18.6036338 3.25545715,20.5030207 C2.44904095,22.4388399 1.83179275,24.4636382 1.42262937,26.5206651 C1.00225602,28.6309393 0.794871838,30.8021676 0.805650547,32.9726953 C0.81729175,35.143223 1.04779647,37.3123495 1.4898891,39.4184199 C1.9214724,41.4705425 2.55903864,43.4883345 3.3864735,45.4150457 C4.19779406,47.3074264 5.20038449,49.131146 6.36481865,50.8350593 C7.51804286,52.5242596 8.84151827,54.1097677 10.2967107,55.5509476 C11.7519031,56.991427 13.3528249,58.2973868 15.0525344,59.4330955 C16.7697595,60.5800141 18.6032879,61.5622865 20.5040761,62.3546902 C22.4391947,63.1611064 24.463993,63.7783546 26.5210199,64.187518 C28.5766455,64.597382 30.6890216,64.8047662 32.8034995,64.8047662 C32.8595493,64.8047662 32.9162997,64.8047662 32.9730501,64.8040656 C35.1435778,64.7928556 37.3120036,64.5623509 39.4173735,64.1202583 C41.4701966,63.6893756 43.4879887,63.0511087 45.4146998,62.2236738 C47.3070805,61.4123533 49.1308002,60.4097629 50.8354141,59.2453287 C52.5232131,58.0921045 54.1094218,56.7693297 55.5506018,55.3134367 C56.9903805,53.8582443 58.297041,52.2580231 59.4327496,50.5576129 C60.5789676,48.8410884 61.5626412,47.00756 62.3543444,45.1067719 C63.1614612,43.1709526 63.7780088,41.1461544 64.1878728,39.0898281 C64.6082461,36.9795539 64.8156303,34.8083256 64.8048516,32.6377979" id="Fill-1" fill="#000000"></path>
    </g>
</svg>